<?xml version="1.0" standalone="no"?>
<!DOCTYPE svg PUBLIC "-//W3C//DTD SVG 1.1//EN" "http://www.w3.org/Graphics/SVG/1.1/DTD/svg11.dtd" >
<svg xmlns="http://www.w3.org/2000/svg" xmlns:xlink="http://www.w3.org/1999/xlink" version="1.1">
<metadata></metadata>
<defs>
<font id="charterbold" horiz-adv-x="1189" >
<font-face units-per-em="2048" ascent="1561" descent="-487" />
<missing-glyph horiz-adv-x="595" />
<glyph horiz-adv-x="0" />
<glyph horiz-adv-x="682" />
<glyph unicode=" "  horiz-adv-x="595" />
<glyph unicode="&#x09;" horiz-adv-x="595" />
<glyph unicode="&#xa0;" horiz-adv-x="595" />
<glyph unicode="!" horiz-adv-x="696" d="M193 1239q0 77 41 119.5t114 42.5t114.5 -43.5t41.5 -124.5q0 -39 -8 -96l-93 -731h-108l-92 727q-10 82 -10 106zM195 139q0 66 45 112t108 46t108.5 -46t45.5 -112q0 -64 -45.5 -108.5t-108.5 -44.5q-62 0 -107.5 44.5t-45.5 108.5z" />
<glyph unicode="&#x22;" horiz-adv-x="694" d="M84 1354q0 52 24.5 80t69.5 28q96 0 96 -108q0 -27 -2 -39l-73 -459h-39l-74 459q-2 14 -2 39zM420 1354q0 52 25.5 80t70.5 28t70.5 -28t25.5 -78q0 -13 -4 -41l-73 -459h-39l-74 459q-2 14 -2 39z" />
<glyph unicode="#" horiz-adv-x="1507" d="M115 453v122h319l90 277h-309v127h350l160 475l129 -37l-152 -438h273l155 473l130 -37l-152 -436h274v-127h-315l-90 -277h321v-122h-364l-160 -500l-131 33l154 467h-267l-163 -502l-129 37l157 465h-280zM571 575h265l94 277h-268z" />
<glyph unicode="$" d="M125 63v355h137l41 -242q101 -52 242 -55v467q-206 55 -304 149.5t-98 245.5q0 154 108 256.5t304 128.5v152h109v-150q164 -3 360 -57v-338h-133l-37 229q-60 38 -190 47v-438q221 -58 324.5 -152.5t103.5 -246.5q0 -159 -116 -271t-319 -141v-211h-112v211 q-249 9 -420 61zM383 1044q0 -150 172 -202v401q-83 -17 -127.5 -69.5t-44.5 -129.5zM659 129q89 13 140 72.5t51 146.5q0 159 -191 211v-430z" />
<glyph unicode="%" horiz-adv-x="1818" d="M76 971q0 201 91.5 314.5t248.5 113.5t249.5 -114.5t92.5 -313.5q0 -201 -92 -316.5t-250 -115.5t-249 114.5t-91 317.5zM270 971q0 -338 140 -338q70 0 106.5 85.5t36.5 252.5q0 166 -36.5 251t-106.5 85q-68 0 -104 -85t-36 -251zM416 0l856 1374h143l-856 -1374h-143z M1083 406q0 201 92.5 314.5t249.5 113.5q156 0 249 -115t93 -313q0 -201 -92 -316t-250 -115t-250 114.5t-92 316.5zM1280 406q0 -338 141 -338q142 0 142 338q0 337 -142 337q-68 0 -104.5 -85.5t-36.5 -251.5z" />
<glyph unicode="&#x26;" horiz-adv-x="1517" d="M109 379q0 261 284 352q-186 149 -186 324q0 151 119 248.5t311 97.5q180 0 287.5 -89t107.5 -227q0 -126 -74.5 -210.5t-230.5 -135.5l322 -338q84 110 112 232l-24 35l-109 18v94h428v-94l-143 -27q-67 -201 -187 -342l187 -204l170 -15v-98h-430v49l-86 98 q-196 -172 -428 -172q-189 0 -309.5 115.5t-120.5 288.5zM367 461q0 -142 83.5 -231t217.5 -89q118 0 219 88l-410 435q-110 -84 -110 -203zM457 1112q0 -70 46.5 -139.5t145.5 -161.5q76 58 111 118t35 138q0 101 -46.5 159t-125.5 58q-71 0 -118.5 -48.5t-47.5 -123.5z " />
<glyph unicode="'" horiz-adv-x="358" d="M84 1354q0 52 24.5 80t69.5 28q96 0 96 -108q0 -27 -2 -39l-73 -459h-39l-74 459q-2 14 -2 39z" />
<glyph unicode="(" horiz-adv-x="876" d="M186 584q0 416 158.5 645t446.5 241v-104q-190 -26 -276.5 -217.5t-86.5 -566.5q0 -366 89 -556t274 -212v-105q-284 11 -444.5 239t-160.5 636z" />
<glyph unicode=")" horiz-adv-x="876" d="M76 -186q189 24 275.5 214.5t86.5 563.5q0 371 -87.5 561.5t-274.5 212.5v104q282 -14 440 -242t158 -638q0 -411 -158.5 -640t-439.5 -241v105z" />
<glyph unicode="*" horiz-adv-x="1024" d="M109 1169l147 54l219 -156l-10 -29l-268 2zM262 850l215 160l25 -21l-84 -254l-152 -43zM414 1346l98 124l96 -124l-80 -256h-34zM518 991l27 17l215 -158l-6 -158l-152 43zM549 1069l217 156l147 -56l-88 -131l-266 -2z" />
<glyph unicode="+" horiz-adv-x="1705" d="M254 528v166h514v527h170v-527h514v-166h-514v-528h-170v528h-514z" />
<glyph unicode="," horiz-adv-x="591" d="M63 -264q111 20 169.5 86.5t58.5 171.5v20h-127q-43 46 -43 111q0 63 39 101t102 38q87 0 138 -58t51 -159q0 -157 -106.5 -271t-281.5 -134v94z" />
<glyph unicode="-" horiz-adv-x="667" d="M74 393v201h520v-201h-520z" />
<glyph unicode="." horiz-adv-x="591" d="M135 145q0 69 47 116.5t113 47.5q67 0 115.5 -48.5t48.5 -115.5t-48 -114t-116 -47q-66 0 -113 47t-47 114z" />
<glyph unicode="/" horiz-adv-x="1005" d="M-55 -190l866 1564h154l-867 -1564h-153z" />
<glyph unicode="0" d="M82 686q0 336 139.5 524.5t378.5 188.5q240 0 381 -189t141 -524t-141 -523t-381 -188q-239 0 -378.5 187.5t-139.5 523.5zM360 694q0 -602 242 -602t242 596t-242 596q-119 0 -180.5 -148.5t-61.5 -441.5z" />
<glyph unicode="1" d="M223 1141v104l443 150h133v-1252l22 -32l193 -9v-102h-711v102l205 13l24 37v1007l-18 25z" />
<glyph unicode="2" d="M98 0v162q139 108 236 190.5t183.5 168.5t137.5 159t80 149t29 152q0 136 -67 211.5t-185 75.5q-55 0 -119 -25v-264q-67 -37 -129 -37q-67 0 -107 39t-40 104q0 132 133 223t348 91q204 0 326.5 -110t122.5 -290q0 -97 -42.5 -189t-135 -189.5t-213.5 -193t-302 -218.5 h574l37 180h125v-389h-992z" />
<glyph unicode="3" d="M86 233q0 60 39.5 97t105.5 37q27 0 80 -17l66 -221q82 -31 141 -31q117 0 196 82.5t79 202.5q0 113 -76.5 182.5t-206.5 69.5q-58 0 -127 -10v147q20 -2 59 -2q144 0 222.5 66.5t78.5 185.5q0 107 -71 175.5t-183 68.5q-50 0 -114 -25v-240q-46 -28 -109 -28 q-66 0 -106.5 39.5t-40.5 101.5q0 115 127 199t329 84q201 0 323 -97.5t122 -248.5q0 -122 -85.5 -206t-250.5 -122q186 -13 286.5 -100t100.5 -228q0 -178 -156.5 -298t-414.5 -120q-183 0 -298.5 75.5t-115.5 180.5z" />
<glyph unicode="4" d="M51 371v166l676 849h201v-854h231v-161h-231v-434h-240v434h-637zM238 532h450v572z" />
<glyph unicode="5" d="M113 227q0 54 43 91.5t110 37.5q25 0 76 -14l70 -231q45 -11 96 -11q125 0 210 85t85 212q0 137 -95.5 217t-263.5 80q-123 0 -247 -28v708h804v-213h-639v-346q131 45 248 45q213 0 339 -110t126 -291q0 -208 -160.5 -342.5t-420.5 -134.5q-173 0 -277 70.5t-104 174.5z " />
<glyph unicode="6" d="M96 592q0 194 61 355.5t172.5 274.5t273.5 176t358 64v-151l-87 8q-202 -15 -327.5 -142t-163.5 -356q157 105 326 105q181 0 302.5 -127.5t121.5 -321.5q0 -222 -147.5 -363t-377.5 -141q-236 0 -374 165t-138 454zM367 588q0 -239 70 -363.5t196 -124.5 q102 0 165.5 90.5t63.5 247.5q0 150 -73.5 237t-198.5 87q-120 0 -219 -51q-4 -122 -4 -123z" />
<glyph unicode="7" d="M156 956v418h981v-133l-664 -1253v-58h-219l659 1217h-591l-31 -191h-135z" />
<glyph unicode="8" d="M86 367q0 120 70.5 202.5t205.5 122.5q-217 100 -217 320q0 176 129.5 283.5t346.5 107.5q195 0 311.5 -100.5t116.5 -255.5q0 -103 -61.5 -184.5t-180.5 -133.5q151 -54 224 -141t73 -215q0 -181 -139.5 -292.5t-382.5 -111.5q-223 0 -359.5 113t-136.5 285zM328 389 q0 -129 77.5 -212t194.5 -83q110 0 177 60.5t67 156.5q0 108 -89 179t-300 153q-66 -59 -96.5 -119.5t-30.5 -134.5zM403 1073q0 -95 74.5 -164.5t233.5 -132.5q106 100 106 252q0 112 -60 182t-157 70q-86 0 -141.5 -58.5t-55.5 -148.5z" />
<glyph unicode="9" d="M86 899q0 224 147 362t390 138q226 0 360.5 -146.5t134.5 -394.5q0 -321 -224 -579.5t-630 -387.5l-55 136l92 16q196 90 319.5 211.5t180.5 282.5q-154 -80 -297 -80q-181 0 -299.5 123.5t-118.5 318.5zM358 942q0 -159 77 -244.5t216 -85.5q87 0 178 45q21 110 21 201 q0 201 -69 310.5t-187 109.5q-102 0 -169 -91.5t-67 -244.5z" />
<glyph unicode=":" horiz-adv-x="696" d="M195 145q0 69 46.5 116.5t112.5 47.5t113 -47.5t47 -116.5q0 -67 -47 -114t-113 -47q-65 0 -112 47t-47 114zM195 838q0 67 46.5 114t112.5 47t113 -47t47 -114t-47 -114.5t-113 -47.5t-112.5 47.5t-46.5 114.5z" />
<glyph unicode=";" horiz-adv-x="696" d="M139 -264q108 20 164.5 87t56.5 175v16h-122q-43 46 -43 111q0 63 38 101t101 38q86 0 136 -58t50 -159q0 -157 -105 -271t-276 -134v94zM195 838q0 67 46.5 114t112.5 47t113 -47t47 -114t-47 -114.5t-113 -47.5t-112.5 47.5t-46.5 114.5z" />
<glyph unicode="&#x3c;" horiz-adv-x="1705" d="M264 530v160l1178 486v-185l-934 -381l934 -381v-182z" />
<glyph unicode="=" horiz-adv-x="1705" d="M254 322v165h1198v-165h-1198zM254 733v168h1198v-168h-1198z" />
<glyph unicode="&#x3e;" horiz-adv-x="1705" d="M264 47v182l934 381l-934 381v185l1178 -486v-160z" />
<glyph unicode="?" horiz-adv-x="997" d="M72 1174q0 95 99.5 160t262.5 65q209 0 335 -104.5t126 -272.5q0 -301 -430 -440v-187h-133v277q297 104 297 350q0 120 -70.5 189t-196.5 69h-6l-92 -231q-14 -2 -41 -2q-72 0 -111.5 33.5t-39.5 93.5zM250 143q0 63 44 108.5t107 45.5q65 0 110.5 -46t45.5 -114 q0 -62 -46 -106.5t-112 -44.5q-60 0 -104.5 45t-44.5 112z" />
<glyph unicode="@" horiz-adv-x="1878" d="M154 502q0 415 290 682q122 113 283 173t344 60q305 0 490.5 -180t185.5 -473q0 -231 -111 -404q-73 -116 -180.5 -182.5t-208.5 -66.5q-162 0 -162 163q-154 -157 -286 -157q-111 0 -182.5 89t-71.5 238q0 203 112 351q72 100 176 155.5t211 55.5q92 0 197 -54l35 47 h139q-10 -25 -18.5 -55t-12.5 -48.5t-12.5 -58t-11.5 -51.5l-74 -348q-16 -78 -16 -127q0 -30 19.5 -49.5t49.5 -19.5q41 0 86.5 26.5t83.5 77.5q63 79 98 187.5t35 222.5q0 253 -155.5 407t-415.5 154q-308 0 -518 -201q-244 -232 -244 -586q0 -218 88 -384.5t247.5 -256.5 t367.5 -90q263 0 520 150l37 -82q-317 -180 -611 -180q-342 0 -579 231q-225 217 -225 584zM758 477q0 -217 147 -217q93 0 187 129l73 408l-73 108q-24 4 -39 4q-123 0 -209 -123t-86 -309z" />
<glyph unicode="A" horiz-adv-x="1333" d="M-23 0v100l123 19l463 1270h215l471 -1268l121 -21v-100h-553v100l129 13l15 26l-123 348h-447l-123 -346l21 -26l129 -15v-100h-441zM430 602h361l-183 506z" />
<glyph unicode="B" horiz-adv-x="1286" d="M59 0v100l121 11l33 32v1092l-33 29l-121 10v100h615q454 0 454 -321q0 -246 -292 -322q178 -3 275 -90.5t97 -239.5q0 -194 -132.5 -297.5t-383.5 -103.5h-633zM479 117q70 -4 99 -4q180 0 262 64.5t82 211.5q0 260 -308 260q-78 0 -135 -4v-528zM479 764q18 -2 56 -2 q160 0 235.5 64t75.5 202q0 120 -70 178t-215 58q-24 0 -82 -4v-496z" />
<glyph unicode="C" horiz-adv-x="1306" d="M84 686q0 320 213 524q195 189 516 189q206 0 418 -76v-342h-152l-39 219l-28 35q-85 31 -162 31q-213 0 -339 -154.5t-126 -423.5q0 -274 131 -429t361 -155q46 0 124 19l31 31l51 247h148v-352q-207 -74 -430 -74q-219 0 -377 93q-160 95 -250 258.5t-90 359.5z" />
<glyph unicode="D" horiz-adv-x="1466" d="M59 0v100l125 11l33 32v1088l-33 33l-125 10v100h598q354 0 546 -181.5t192 -506.5q0 -364 -252 -557q-92 -71 -208.5 -100t-277.5 -29h-598zM487 115h119q244 0 364 142t120 431t-120 430.5t-364 141.5h-119v-1145z" />
<glyph unicode="E" horiz-adv-x="1220" d="M59 0v100l125 11l33 32v1092l-33 29l-125 10v100h1033v-321h-144l-30 180l-27 27h-408v-488h267l28 29l21 147h121v-475h-121l-21 148l-28 28h-267v-532h475l27 33l35 217h139v-367h-1100z" />
<glyph unicode="F" horiz-adv-x="1130" d="M53 1274v100h1028v-344h-141l-31 199l-26 26h-396v-510h275l29 27l20 150h121v-478h-121l-20 150l-29 27h-275v-478l35 -32l144 -11v-100h-605v100l123 11l33 32v1092l-33 29z" />
<glyph unicode="G" horiz-adv-x="1454" d="M82 696q0 316 203.5 508.5t543.5 192.5q203 0 433 -68v-348h-150l-39 217l-31 37q-79 33 -170 33q-229 0 -361 -152t-132 -420q0 -275 135.5 -429t372.5 -154q32 0 112 6v418l-32 28l-152 10v101h598v-101l-119 -10l-32 -28v-478q-241 -84 -459 -84q-212 0 -376.5 91 t-254.5 255t-90 375z" />
<glyph unicode="H" horiz-adv-x="1556" d="M61 0v100l119 11l33 32v1088l-33 33l-119 10v100h580v-100l-123 -10l-33 -33v-449h592v449l-30 33l-123 10v100h577v-100l-119 -10l-32 -33v-1088l32 -32l119 -11v-100h-577v100l123 11l30 32v516h-592v-516l33 -32l123 -11v-100h-580z" />
<glyph unicode="I" horiz-adv-x="724" d="M61 0v100l136 11l32 32v1092l-32 29l-136 10v100h613v-100l-137 -10l-33 -29v-1092l33 -32l137 -11v-100h-613z" />
<glyph unicode="J" horiz-adv-x="952" d="M25 25v368h149l47 -270l29 -27q5 0 16.5 -1t16.5 -1q135 0 188 104t53 337v700l-32 29l-144 10v100h602v-100l-125 -10l-32 -29v-698q0 -289 -113.5 -425.5t-362.5 -136.5q-140 0 -292 50z" />
<glyph unicode="K" horiz-adv-x="1331" d="M61 0v100l125 11l31 32v1092l-31 29l-125 10v100h582v-100l-121 -10l-33 -29v-537h58l444 539l-12 27l-115 10v100h461v-100l-143 -14l-389 -465l436 -682l147 -13v-100h-424v72l-344 530h-119v-459l33 -32l121 -11v-100h-582z" />
<glyph unicode="L" horiz-adv-x="1112" d="M55 0v100l125 11l35 32v1092l-29 29l-131 10v100h590v-100l-125 -10l-33 -29v-1116h394l26 33l31 249h152v-401h-1035z" />
<glyph unicode="M" horiz-adv-x="1808" d="M51 0v100l131 15l29 37v1085l-25 27l-135 12v98h537v-57l319 -940l318 938v59h542v-98l-139 -12l-22 -29v-1092l22 -32l139 -11v-100h-567v100l127 11l21 32v1100l-426 -1243h-148l-416 1233v-1081l31 -37l127 -15v-100h-465z" />
<glyph unicode="N" horiz-adv-x="1488" d="M51 1274v100h471v-55l627 -973v877l-37 39l-125 16v96h467v-96l-121 -16l-35 -39v-1223h-229l-709 1100v-948l33 -37l127 -17v-98h-467v98l121 17l37 37v1083l-29 29z" />
<glyph unicode="O" horiz-adv-x="1540" d="M84 694q0 337 211 533q193 178 479 178q262 0 451 -160q118 -101 180.5 -245.5t62.5 -317.5q0 -331 -219 -535q-93 -87 -212.5 -133.5t-248.5 -46.5q-318 0 -511 200t-193 527zM389 690q0 -276 108 -437t277 -161q171 0 279 158t108 426q0 279 -106 438.5t-277 159.5 q-173 0 -281 -156.5t-108 -427.5z" />
<glyph unicode="P" horiz-adv-x="1202" d="M51 1274v100h553q288 0 423.5 -97.5t135.5 -315.5q0 -214 -140 -334.5t-396 -120.5q-49 0 -140 6v-369l31 -32l146 -11v-100h-605v100l121 11l37 32v1092l-31 29zM487 629q54 -4 74 -4q320 0 320 327q0 147 -74 225t-213 78h-107v-626z" />
<glyph unicode="Q" horiz-adv-x="1540" d="M80 688q0 236 119 424q89 137 239 216t328 79q276 0 459 -158q121 -103 185.5 -249t64.5 -320q0 -267 -149 -454t-396 -230q4 -123 71.5 -180.5t204.5 -57.5q83 0 189 25v-105q-194 -43 -338 -43q-213 0 -314.5 84.5t-101.5 262.5v6q-257 40 -409 229.5t-152 470.5z M389 694q0 -272 111 -432t284 -160q168 0 273.5 157t105.5 427q0 272 -109.5 430t-283.5 158q-169 0 -275 -155.5t-106 -424.5z" />
<glyph unicode="R" horiz-adv-x="1374" d="M63 0v100l121 11l33 32v1092l-33 29l-121 10v100h623q237 0 359 -89.5t122 -260.5q0 -141 -89 -229.5t-263 -120.5q150 -35 215 -127q28 -40 48 -90t39.5 -115t31.5 -98q32 -83 84.5 -113.5t157.5 -30.5h26v-98q-115 -16 -205 -16q-134 0 -213 63q-26 20 -47 43.5 t-33.5 40.5t-26 48t-18 43.5t-17 50.5t-15.5 47q-26 81 -48.5 128t-59 85t-88 53.5t-128.5 15.5h-35v-461l33 -32l125 -11v-100h-578zM483 723q27 -2 74 -2q165 0 244.5 67t79.5 207q0 127 -77.5 194.5t-225.5 67.5h-95v-534z" />
<glyph unicode="S" horiz-adv-x="1163" d="M121 45v371h155l33 -246l27 -31q89 -28 180 -28q122 0 193 54t71 140q0 81 -53 140.5t-166 117.5q-18 9 -62 29.5t-70.5 34t-65 37.5t-70.5 51q-143 122 -143 280q0 173 133.5 288.5t349.5 115.5q184 0 385 -70v-332h-148l-34 213l-29 29q-60 29 -150 29 q-111 0 -176 -54.5t-65 -140.5q0 -68 40 -118.5t126 -102.5q22 -14 122.5 -58.5t169.5 -88.5q89 -57 137 -137t48 -171q0 -186 -147.5 -303t-395.5 -117q-203 0 -395 68z" />
<glyph unicode="T" horiz-adv-x="1234" d="M33 1012v362h1181v-362h-141l-35 219l-30 26h-246v-1114l35 -32l133 -11v-100h-613v100l134 11l34 32v1114h-245l-33 -26l-33 -219h-141z" />
<glyph unicode="U" horiz-adv-x="1443" d="M41 1274v100h588v-100l-127 -10l-29 -29v-717q0 -201 76 -291t258 -90q167 0 239 96t72 304v690l-31 35l-131 12v100h465v-100l-125 -12l-28 -35v-711q0 -283 -127 -412t-414 -129q-150 0 -262 43.5t-176 124.5q-55 72 -72.5 159.5t-17.5 223.5v709l-29 29z" />
<glyph unicode="V" horiz-adv-x="1300" d="M-43 1274v100h563v-100l-119 -10l-22 -31l340 -934l330 934l-23 31l-123 10v100h449v-100l-133 -27l-455 -1251h-207l-465 1253z" />
<glyph unicode="W" horiz-adv-x="1937" d="M4 1274v100h537v-98l-127 -14l-17 -29l230 -850l295 991h206l304 -1014l215 861l-25 28l-135 25v100h446v-100l-129 -29l-313 -1245h-199l-317 1049l-311 -1049h-199l-332 1245z" />
<glyph unicode="X" horiz-adv-x="1304" d="M0 0v98l131 21l399 547l-372 589l-129 21v98h579v-98l-123 -10l-16 -27l233 -381l267 375l-19 29l-112 14v98h458v-98l-127 -16l-381 -517l394 -618l137 -27v-98h-594v98l129 17l14 26l-250 410l-290 -406l12 -34l133 -13v-98h-473z" />
<glyph unicode="Y" horiz-adv-x="1249" d="M-23 1274v100h560v-100l-115 -10l-19 -25l281 -520l293 502l-16 32l-123 23v98h446v-100l-121 -23l-389 -661v-449l33 -28l139 -11v-102h-614v102l137 11l33 28v400l-393 712z" />
<glyph unicode="Z" horiz-adv-x="1212" d="M90 0v113l717 1142h-463l-39 -24l-33 -219h-145v362h987v-112l-717 -1141h525l20 29l37 247h147v-397h-1036z" />
<glyph unicode="[" horiz-adv-x="907" d="M279 -270v1720h550v-115h-315v-1493h315v-112h-550z" />
<glyph unicode="\" horiz-adv-x="1005" d="M-14 1374h153l856 -1564h-153z" />
<glyph unicode="]" horiz-adv-x="907" d="M86 -158h315v1495h-315v113h553v-1720h-553v112z" />
<glyph unicode="^" horiz-adv-x="2048" d="M412 897l503 565h215l502 -565h-104l-506 397l-506 -397h-104z" />
<glyph unicode="_" horiz-adv-x="1024" d="M0 -311h1024v-172h-1024v172z" />
<glyph unicode="`" horiz-adv-x="1024" d="M176 1520h254l199 -390h-140z" />
<glyph unicode="a" horiz-adv-x="1114" d="M82 248q0 44 8.5 80.5t29.5 67t45.5 54.5t68 46t85.5 39t109 36t126.5 33.5t150.5 34.5v61q0 110 -47 161.5t-148 51.5q-42 0 -98 -12v-192h-189q-47 0 -70.5 17.5t-23.5 57.5q0 93 126 165.5t320 72.5q213 0 298 -82t85 -281v-530l27 -29l109 -10v-90h-365l-27 117 q-201 -135 -352 -135q-118 0 -193 74.5t-75 191.5zM352 293q0 -71 41 -112.5t111 -41.5q77 0 198 62v334q-191 -42 -270.5 -93.5t-79.5 -148.5z" />
<glyph unicode="b" horiz-adv-x="1181" d="M18 1337v80l304 96h98v-585q167 92 297 92q176 0 289.5 -129.5t113.5 -335.5q0 -178 -82.5 -307.5t-240.5 -200.5q-113 -49 -348 -49h-56l-227 4v1335h-148zM420 111q23 -2 65 -2q186 0 273.5 96t87.5 297q0 174 -77.5 266t-219.5 92q-51 0 -129 -16v-733z" />
<glyph unicode="c" horiz-adv-x="974" d="M72 487q0 233 148.5 382t379.5 149q155 0 246.5 -63.5t91.5 -159.5q0 -61 -41 -100.5t-106 -39.5q-68 0 -121 39v217q-35 7 -52 7q-111 0 -189.5 -105.5t-78.5 -275.5q0 -183 86 -287.5t230 -104.5q132 0 284 93v-146q-196 -108 -387 -108q-221 0 -356 139.5t-135 363.5z " />
<glyph unicode="d" horiz-adv-x="1220" d="M76 475q0 246 147 397.5t381 151.5q87 0 193 -20v331h-150v82l305 96h95v-1382l28 -33l105 -8v-90h-383v115q-181 -133 -324 -133q-173 0 -285 137t-112 356zM350 518q0 -171 73.5 -266.5t201.5 -95.5q69 0 172 39v684q-88 30 -152 30q-132 0 -213.5 -105t-81.5 -286z " />
<glyph unicode="e" horiz-adv-x="1073" d="M76 496q0 234 142 381t364 147q202 0 314 -121t112 -342v-39h-670v-6q0 -176 88.5 -275.5t241.5 -99.5q161 0 338 113v-152q-205 -120 -424 -120q-229 0 -367.5 141t-138.5 373zM348 631h391v22q0 126 -46 192t-132 66q-93 0 -151 -74t-62 -206z" />
<glyph unicode="f" horiz-adv-x="698" d="M61 848v78l134 61q0 296 208 449q115 86 248 86q88 0 140.5 -41.5t52.5 -108.5q0 -86 -119 -127l-199 176q-80 -83 -80 -311v-16v-123h275v-123h-275v-713l33 -31l137 -10v-94h-553v94l103 10l29 33v711h-134z" />
<glyph unicode="g" horiz-adv-x="1128" d="M70 -164q0 95 56.5 155.5t154.5 69.5q-27 58 -27 103q0 93 113 194q-123 35 -188.5 115.5t-65.5 192.5q0 158 118 255t320 97q137 0 283 -60h303v-116h-222q46 -79 46 -158q0 -150 -118 -245t-317 -95q-39 0 -59 2q-16 -43 -16 -76q0 -25 6 -55l139 -18q94 -14 161.5 -29 t124 -37.5t91 -51.5t53 -69t18.5 -92q0 -149 -154.5 -255.5t-395.5 -106.5q-200 0 -312 76t-112 204zM319 -131q0 -84 68.5 -144.5t169.5 -60.5q108 0 176 56.5t68 136.5q0 70 -51 101t-170 52l-174 29q-87 -72 -87 -170zM375 684q0 -115 46.5 -181.5t121.5 -66.5 q73 0 119.5 67.5t46.5 182.5q0 107 -46.5 171.5t-115.5 64.5q-78 0 -125 -63.5t-47 -174.5z" />
<glyph unicode="h" horiz-adv-x="1222" d="M33 1337v80l303 96h98v-618q230 125 350 125q281 0 281 -340v-549l27 -31l108 -8v-92h-502v92l88 8l29 31v490q0 114 -44.5 167.5t-139.5 53.5q-78 0 -197 -35v-676l31 -31l90 -8v-92h-506v92l105 8l28 31v1206h-149z" />
<glyph unicode="i" horiz-adv-x="624" d="M61 0v92l111 8l29 31v707h-135v82l288 96h99v-885l30 -31l115 -8v-92h-537zM184 1329q0 66 42.5 110t105.5 44q68 0 110.5 -43t42.5 -107q0 -68 -43 -111.5t-108 -43.5q-63 0 -106.5 42.5t-43.5 108.5z" />
<glyph unicode="j" horiz-adv-x="608" d="M-164 -295q0 50 32 87.5t87 47.5l201 -186q67 92 67 405v779h-145v80l309 98h86v-815q0 -169 -23 -280t-88 -195q-60 -77 -150.5 -120.5t-188.5 -43.5q-85 0 -136 40t-51 103zM193 1329q0 68 42 111t111 43q63 0 106.5 -44.5t43.5 -111.5q0 -63 -45.5 -106t-108.5 -43 t-106 42.5t-43 108.5z" />
<glyph unicode="k" horiz-adv-x="1132" d="M37 1337v80l315 96h86v-983h45l293 342l-14 23l-90 10v90h418v-90l-134 -16l-233 -260l326 -529l120 -10v-90h-393v80l-237 383h-101v-336l27 -29l102 -8v-90h-516v90l107 10l28 31v1206h-149z" />
<glyph unicode="l" horiz-adv-x="622" d="M47 0v90l119 12l29 29v1204h-148v80l309 98h90v-1378l31 -33l119 -12v-90h-549z" />
<glyph unicode="m" horiz-adv-x="1826" d="M63 0v92l105 8l29 31v707h-134v82l289 96h99v-121q219 129 335 129q156 0 240 -143q243 139 363 139q284 0 284 -340v-549l27 -31l108 -8v-92h-503v92l88 8l28 31v490q0 116 -44 168.5t-144 52.5q-70 0 -176 -39v-672l28 -31l93 -10v-90h-484v92l84 8l29 35v498 q0 109 -43.5 160t-140.5 51q-74 0 -172 -37v-676l28 -31l86 -8v-92h-502z" />
<glyph unicode="n" horiz-adv-x="1239" d="M57 838v82l295 96h99v-121q227 125 350 125q278 0 278 -340v-549l27 -31l108 -8v-92h-501v92l88 8l28 31v490q0 115 -44 168t-140 53q-75 0 -194 -35v-676l28 -31l90 -8v-92h-506v92l105 8l29 31v707h-140z" />
<glyph unicode="o" horiz-adv-x="1181" d="M76 498q0 237 144.5 380.5t385.5 143.5q236 0 375 -142t139 -386q0 -229 -144.5 -369.5t-385.5 -140.5q-231 0 -372.5 141.5t-141.5 372.5zM360 506q0 -198 63.5 -306t172.5 -108q115 0 178.5 105t63.5 303t-64.5 305.5t-175.5 107.5q-110 0 -174 -106t-64 -301z" />
<glyph unicode="p" horiz-adv-x="1210" d="M45 838v82l299 96h92v-123q186 129 324 129q165 0 276 -135.5t111 -347.5q0 -247 -147.5 -394t-395.5 -147q-66 0 -168 12v-327l31 -29l129 -8l-2 -95h-547v95l111 10l28 31v1151h-141zM436 123q66 -14 131 -14q136 0 218.5 106t82.5 289q0 163 -72 252.5t-198 89.5 q-67 0 -162 -39v-684z" />
<glyph unicode="q" horiz-adv-x="1177" d="M76 469q0 261 168.5 407t478.5 146q111 0 319 -27q-6 -105 -6 -118v-1194l31 -29l102 -8v-92h-546v94l131 8l30 29v403q-175 -96 -305 -96q-175 0 -289 132.5t-114 344.5zM352 512q0 -171 77 -264.5t212 -93.5q66 0 143 14v731q-62 10 -102 10q-160 0 -245 -102.5 t-85 -294.5z" />
<glyph unicode="r" horiz-adv-x="862" d="M49 838v82l301 96h99l-9 -209q107 115 240 209q28 4 45 4q67 0 135 -35l-26 -283h-107q-45 74 -133 74q-53 0 -145 -57v-588l30 -31l146 -8v-92h-566v92l109 8l29 31v707h-148z" />
<glyph unicode="s" horiz-adv-x="915" d="M84 29v303h125l22 -176l21 -23q79 -43 172 -43q82 0 128 40t46 108q0 27 -10 49t-24 37t-42 31.5t-52 27.5t-67.5 30.5t-74.5 35.5q-120 60 -175 121t-55 149q0 135 108.5 220t293.5 85q157 0 309 -51v-273h-123l-20 154l-25 23q-69 32 -135 32q-74 0 -115 -32.5 t-41 -90.5q0 -25 9.5 -46.5t22 -36.5t41.5 -33.5t51 -30t67 -33.5q51 -25 74.5 -36.5t63 -33.5t57.5 -36t42.5 -36t35 -43t18.5 -48t8 -58q0 -156 -110.5 -247t-307.5 -91q-149 0 -338 52z" />
<glyph unicode="t" horiz-adv-x="733" d="M39 848v78l151 86l107 213h129v-254h303v-123h-303v-510q0 -111 35.5 -155t134.5 -44q72 0 133 15v-99q-178 -65 -313 -65q-106 0 -170 45q-49 32 -61.5 78t-12.5 139v596h-133z" />
<glyph unicode="u" horiz-adv-x="1228" d="M47 844v80l289 98h98v-635q0 -121 45 -175t150 -54q67 0 176 32v654h-133v80l291 98h94v-891l28 -31l107 -8v-92h-387v113q-201 -131 -344 -131q-142 0 -211.5 86.5t-69.5 263.5v512h-133z" />
<glyph unicode="v" horiz-adv-x="1050" d="M-12 903v94h520v-94l-107 -10l-22 -27l213 -598l233 596l-16 29l-104 10v94h389v-94l-119 -14l-352 -889h-185l-327 891z" />
<glyph unicode="w" horiz-adv-x="1636" d="M-2 903v94h508v-94l-100 -14l-23 -29l166 -590l239 727h205l224 -727l180 592l-15 29l-108 12v94h387v-94l-115 -14l-278 -889h-207l-227 735l-244 -735h-205l-264 891z" />
<glyph unicode="x" horiz-adv-x="1087" d="M23 0v90l120 23l287 366l-285 408l-116 16v94h493v-86l-78 -12l-10 -22l164 -244l178 256l-104 18v90h377v-94l-113 -14l-262 -340l305 -440l108 -19v-90h-479v80l72 18l8 21l-180 274l-193 -282l105 -21v-90h-397z" />
<glyph unicode="y" horiz-adv-x="1054" d="M-8 907v88h520v-88l-104 -12l-21 -29l221 -579l223 577l-18 31l-108 12v88h393v-88l-111 -18l-395 -961q-74 -179 -176 -278t-205 -99q-73 0 -124.5 46t-51.5 106q0 90 106 145l178 -122q86 69 160 249l-364 914z" />
<glyph unicode="z" horiz-adv-x="1013" d="M94 0v127l529 758h-332l-27 -29l-20 -170h-133v309h811v-106l-543 -774h379l30 32l25 189h139v-336h-858z" />
<glyph unicode="{" horiz-adv-x="1009" d="M94 539v116h41q136 0 188 58.5t52 204.5v172q0 195 102 274.5t342 79.5h43v-105q-149 -4 -200.5 -59.5t-51.5 -196.5v-129q0 -162 -70.5 -247t-226.5 -111q154 -25 226.5 -110t72.5 -242v-150q0 -77 10 -123.5t38 -78.5t75.5 -44.5t126.5 -13.5v-108q-10 0 -30.5 -1 t-30.5 -1q-236 0 -331 83.5t-95 296.5v166q0 150 -52.5 209.5t-187.5 59.5h-41z" />
<glyph unicode="|" horiz-adv-x="1024" d="M424 -483v2048h178v-2048h-178z" />
<glyph unicode="}" horiz-adv-x="1009" d="M127 -166q79 1 127.5 14t76.5 45t38 78.5t10 122.5v150q0 157 71.5 242t225.5 110q-157 28 -226 112t-69 246v129q0 142 -52.5 197t-201.5 59v105h43q244 0 345 -79t101 -275v-172q0 -145 51 -205t183 -60q7 0 22 1t23 1v-116h-41q-135 0 -187.5 -59.5t-52.5 -209.5v-166 q0 -213 -95 -296.5t-331 -83.5q-10 0 -30.5 1t-30.5 1v108z" />
<glyph unicode="~" horiz-adv-x="1705" d="M178 434v187q210 143 387 143q122 0 293 -59q12 -4 48.5 -17t51 -18t45.5 -14.5t51 -13.5t46.5 -7.5t50.5 -3.5q166 0 379 153v-184q-204 -141 -381 -141q-91 0 -191 35q-25 8 -80.5 27.5t-84 28.5t-73 21.5t-82 17.5t-75.5 5q-158 0 -385 -160z" />
<glyph unicode="&#xa1;" horiz-adv-x="696" d="M193 154q0 53 6 96l94 731h106l95 -727q10 -75 10 -113q0 -72 -43.5 -114.5t-114.5 -42.5q-72 0 -112.5 45t-40.5 125zM195 1247q0 64 45 109t108 45q62 0 108 -45t46 -109q0 -66 -45.5 -111.5t-108.5 -45.5t-108 45.5t-45 111.5z" />
<glyph unicode="&#xa2;" d="M121 518q0 219 135 361t369 165v209h112v-204q150 -3 293 -60v-295h-121l-30 201q-64 37 -142 37v-815q75 0 142 30l30 213h123v-309q-113 -43 -295 -49v-211h-112v213q-228 17 -366 159t-138 355zM381 516q0 -152 66.5 -258t177.5 -137v807q-115 -33 -179.5 -140.5 t-64.5 -271.5z" />
<glyph unicode="&#xa3;" d="M88 0v147q119 30 166 121t47 271q0 13 -1 37t-1 36h-143v123h141q-6 61 -6 119q0 258 122.5 397.5t340.5 139.5q153 0 250.5 -69t97.5 -167q0 -61 -43.5 -100t-114.5 -39q-26 0 -82 16v238q-34 10 -76 10q-130 0 -185.5 -101.5t-55.5 -322.5q0 -35 4 -121h371v-123h-369 q0 -288 -207 -405l4 -17q102 15 146 15h612v-205h-1018z" />
<glyph unicode="&#xa4;" horiz-adv-x="1241" d="M76 432l203 205q-80 109 -80 248t80 248l-203 204l92 93l203 -203q110 82 250 82q141 0 251 -82l203 203l94 -93l-204 -204q79 -107 79 -248t-79 -248l204 -205l-94 -92l-203 205q-113 -82 -249 -82q-142 0 -252 82l-203 -205zM332 885q0 -120 85 -204.5t206 -84.5 t205.5 84.5t84.5 204.5q0 119 -85 205t-205 86t-205.5 -86t-85.5 -205z" />
<glyph unicode="&#xa5;" horiz-adv-x="1218" d="M-14 1274v100h538v-100l-110 -10l-19 -25l269 -520l276 502l-16 32l-115 23v98h426v-100l-115 -23l-207 -370h271v-103h-332l-109 -196h441v-101h-436v-340l32 -28l144 -11v-102h-613v102l140 11l34 28v340h-440v101h420l-100 196h-320v103h258l-192 372z" />
<glyph unicode="&#xa6;" horiz-adv-x="1024" d="M424 -350v758h178v-758h-178zM424 674v758h178v-758h-178z" />
<glyph unicode="&#xa7;" horiz-adv-x="1024" d="M94 586q0 216 242 321q-104 55 -152.5 118.5t-48.5 150.5q0 137 110.5 217t309.5 80q146 0 311 -50v-278h-108l-21 168q-101 55 -186 55q-87 0 -142 -46t-55 -116q0 -28 10.5 -51.5t24.5 -39.5t46 -36t55 -31.5t74 -35.5t81 -39q147 -73 216 -156t69 -190 q0 -106 -66 -197t-182 -137q108 -56 157.5 -120t49.5 -150q0 -139 -111.5 -226.5t-304.5 -87.5q-158 0 -328 66l-2 280h119l27 -186q96 -51 188 -51q89 0 144 46.5t55 115.5q0 27 -6.5 49.5t-25.5 43.5t-35 35.5t-53 34.5t-60 31.5t-76 36.5t-82 39q-244 117 -244 336z M270 643q0 -88 73.5 -153t238.5 -140q85 50 125.5 102.5t40.5 114.5q0 82 -75 149.5t-231 133.5q-84 -32 -128 -85.5t-44 -121.5z" />
<glyph unicode="&#xa8;" horiz-adv-x="1024" d="M170 1319q0 57 38.5 96t92.5 39q53 0 91 -39t38 -96q0 -56 -37.5 -94.5t-91.5 -38.5t-92.5 39t-38.5 94zM594 1319q0 57 37.5 96t91.5 39q53 0 91 -39t38 -96q0 -55 -38 -94t-91 -39q-55 0 -92 38.5t-37 94.5z" />
<glyph unicode="&#xa9;" horiz-adv-x="1794" d="M127 694q0 158 58.5 302.5t168.5 260.5q110 114 254 175t301 61q153 0 299 -62.5t256 -175.5q106 -109 165 -257.5t59 -309.5q0 -154 -62.5 -300t-177.5 -263q-227 -227 -551 -227q-148 0 -288.5 60.5t-252.5 174.5q-229 232 -229 561zM225 696q0 -293 201 -497 q204 -207 481 -207q137 0 259.5 53t219.5 154q98 103 150.5 231t52.5 266q0 141 -52.5 272t-147.5 228q-96 98 -222.5 151.5t-257.5 53.5q-136 0 -262 -54.5t-223 -154.5q-199 -205 -199 -496zM434 692q0 212 139.5 347t366.5 135q152 0 289 -52v-248h-109l-30 164 q-58 37 -125 37q-134 0 -221 -106t-87 -275q0 -172 86 -277.5t218 -105.5q61 0 131 31l30 176h107v-256q-134 -51 -303 -51q-217 0 -354.5 134.5t-137.5 346.5z" />
<glyph unicode="&#xaa;" horiz-adv-x="835" d="M61 850q0 31 6.5 56t22 46.5t33.5 38t51 32t64 27t82 24.5t95 23t113 25v43q0 78 -35 114t-110 36q-38 0 -74 -8v-136h-141q-72 0 -72 54q0 65 95 115.5t241 50.5q160 0 223.5 -57.5t63.5 -196.5v-371l20 -21l82 -6v-63h-274l-21 82q-151 -94 -264 -94q-88 0 -144.5 51.5 t-56.5 134.5zM264 881q0 -50 30.5 -78.5t84.5 -28.5q60 0 147 43v234q-143 -31 -202.5 -67t-59.5 -103z" />
<glyph unicode="&#xab;" horiz-adv-x="919" d="M72 406v172l354 294v-172l-221 -208l221 -209v-172zM473 406v172l354 294v-172l-221 -208l221 -209v-172z" />
<glyph unicode="&#xac;" horiz-adv-x="1705" d="M254 696v166h1198v-502h-166v336h-1032z" />
<glyph unicode="&#xad;" horiz-adv-x="667" d="M74 393v201h520v-201h-520z" />
<glyph unicode="&#xae;" horiz-adv-x="1794" d="M127 694q0 158 58.5 302.5t168.5 260.5q110 114 254 175t301 61q153 0 299 -62.5t256 -175.5q106 -109 165 -257.5t59 -309.5q0 -154 -62.5 -300t-177.5 -263q-227 -227 -551 -227q-148 0 -288.5 60.5t-252.5 174.5q-229 232 -229 561zM225 694q0 -288 195 -489 q207 -213 487 -213q137 0 259.5 53t219.5 154q98 101 150.5 229.5t52.5 267.5q0 140 -51 269.5t-143 224.5q-96 101 -224 156t-262 55q-135 0 -261 -54t-224 -155q-199 -208 -199 -498zM500 1073v72h450q318 0 318 -221q0 -91 -62 -150t-182 -82q42 -9 74 -25.5t51.5 -33 t37 -47t26 -51.5t23.5 -61q2 -5 3 -8t3 -8t3 -9q26 -70 60.5 -96.5t107.5 -26.5h10v-76q-85 -12 -125 -12q-98 0 -159 41q-29 19 -49.5 46.5t-28.5 48t-21 62.5t-20 60q-28 79 -72 112t-125 33h-22v-295l117 -22v-76h-412v74l102 22v705zM801 727q14 -2 41 -2 q106 0 160.5 43.5t54.5 126.5q0 80 -55 124t-160 44q-27 0 -41 -2v-334z" />
<glyph unicode="&#xaf;" horiz-adv-x="1024" d="M176 1237v145h678v-145h-678z" />
<glyph unicode="&#xb0;" horiz-adv-x="673" d="M43 1163q0 124 86 210.5t209 86.5t209 -87t86 -210q0 -121 -86.5 -208t-210.5 -87q-123 0 -208 85.5t-85 209.5zM152 1165q0 -77 55 -131.5t131 -54.5q77 0 130.5 55t53.5 131q0 77 -54 131t-130 54q-77 0 -131.5 -54.5t-54.5 -130.5z" />
<glyph unicode="&#xb1;" horiz-adv-x="1705" d="M254 14v168h1198v-168h-1198zM254 707v165h514v334h170v-334h514v-165h-514v-334h-170v334h-514z" />
<glyph unicode="&#xb2;" horiz-adv-x="784" d="M66 549v96q233 166 335.5 274.5t102.5 217.5q0 82 -44.5 127t-121.5 45q-38 0 -78 -15v-157q-51 -23 -86 -23q-44 0 -70 23.5t-26 62.5q0 79 87.5 134t229.5 55q134 0 214.5 -66.5t80.5 -173.5q0 -113 -108 -219.5t-349 -255.5h379l25 108h82v-233h-653z" />
<glyph unicode="&#xb3;" horiz-adv-x="784" d="M57 688q0 37 26.5 58.5t70.5 21.5q24 0 51 -8l43 -133q59 -19 94 -19q76 0 128 49t52 121q0 68 -50.5 110t-135.5 42q-28 0 -84 -6v88h41q95 0 147 39t52 110q0 65 -47.5 106.5t-120.5 41.5q-25 0 -76 -15v-145q-31 -16 -72 -16q-44 0 -71 23.5t-27 60.5q0 70 84 119.5 t217 49.5t214 -58t81 -148q0 -150 -223 -197q123 -9 189.5 -61t66.5 -136q0 -107 -103 -179t-274 -72q-121 0 -197 45.5t-76 107.5z" />
<glyph unicode="&#xb4;" horiz-adv-x="1024" d="M422 1130l199 390h253l-315 -390h-137z" />
<glyph unicode="&#xb5;" horiz-adv-x="1183" d="M-109 -319q0 45 26.5 135.5t72.5 248t78 308.5l108 512h207l-100 -467q-21 -99 -21 -139q0 -64 37 -101t102 -37q87 0 138.5 53t76.5 168l111 523h209l-113 -533q-18 -88 -18 -125q0 -42 23 -66t63 -24q77 0 129 90q10 17 23.5 50t23.5 46t27 13q22 0 22 -31 q0 -26 -16 -83t-41 -103q-81 -144 -219 -144q-83 0 -129 54.5t-47 156.5q-87 -211 -267 -211q-99 0 -157 58t-68 168q-15 -80 -27.5 -166t-19 -142t-15 -112t-17 -89.5t-22 -61t-33 -39t-48.5 -11.5q-46 0 -72.5 27t-26.5 74z" />
<glyph unicode="&#xb6;" horiz-adv-x="1005" d="M39 950q0 224 119.5 324t376.5 100h401v-88l-125 -20v-1428h-117v1438h-143v-739h-35q-242 0 -359.5 102t-117.5 311z" />
<glyph unicode="&#xb7;" horiz-adv-x="591" d="M135 686q0 68 47 116t113 48q67 0 115.5 -48t48.5 -116q0 -66 -48.5 -114t-115.5 -48q-66 0 -113 47.5t-47 114.5z" />
<glyph unicode="&#xb8;" horiz-adv-x="1024" d="M352 -352q90 -17 125 -17q127 0 127 76q0 31 -24 49.5t-68 18.5q-13 0 -45 -4v229h98v-117q10 2 33 2q79 0 122.5 -41t43.5 -114q0 -90 -66.5 -145.5t-179.5 -55.5q-76 0 -166 22v97z" />
<glyph unicode="&#xb9;" horiz-adv-x="784" d="M147 1233v63l293 90h88v-751l15 -21l127 -4v-61h-469v61l135 8l16 21v606l-12 15z" />
<glyph unicode="&#xba;" horiz-adv-x="886" d="M57 1024q0 166 108.5 266.5t289.5 100.5q177 0 281 -99.5t104 -269.5q0 -161 -108 -259.5t-290 -98.5q-172 0 -278.5 99t-106.5 261zM270 1030q0 -139 47.5 -215t128.5 -76q87 0 135 74.5t48 212.5t-48.5 213.5t-131.5 75.5t-131 -74.5t-48 -210.5z" />
<glyph unicode="&#xbb;" horiz-adv-x="919" d="M88 111v172l221 209l-221 208v172l352 -294v-172zM489 111v172l222 209l-222 208v172l355 -294v-172z" />
<glyph unicode="&#xbc;" horiz-adv-x="1841" d="M141 1243v57l279 84h84v-700l14 -18l121 -4v-58h-449v58l129 6l17 20v565l-12 15zM410 0l876 1374h144l-875 -1374h-145zM1124 207v94l426 475h125v-477h148v-92h-148v-242h-149v242h-402zM1241 299h285v319z" />
<glyph unicode="&#xbd;" horiz-adv-x="1841" d="M141 1243v57l279 84h84v-700l14 -18l121 -4v-58h-449v58l129 6l17 20v565l-12 15zM410 0l876 1374h144l-875 -1374h-145zM1153 0v90q110 76 181.5 132t129 113.5t83.5 109t26 104.5q0 76 -43 119t-117 43q-23 0 -74 -15v-147q-43 -21 -82 -21q-41 0 -66.5 21.5 t-25.5 58.5q0 73 83.5 123.5t219.5 50.5q128 0 205.5 -61.5t77.5 -161.5q0 -104 -103 -203.5t-333 -238.5h360l25 100h78v-217h-625z" />
<glyph unicode="&#xbe;" horiz-adv-x="1841" d="M53 735q0 34 25.5 54t66.5 20q25 0 52 -8l41 -125q56 -17 88 -17q73 0 123.5 46t50.5 114q0 64 -48.5 103t-129.5 39q-19 0 -80 -7v82h37q90 0 140 37t50 103q0 61 -44.5 99t-115.5 38q-33 0 -73 -15v-133q-27 -16 -68 -16t-66.5 22.5t-25.5 57.5q0 64 79.5 110.5 t206.5 46.5q128 0 204.5 -54t76.5 -140q0 -67 -54.5 -113.5t-158.5 -68.5q117 -7 180.5 -56.5t63.5 -128.5q0 -99 -98.5 -166t-260.5 -67q-116 0 -189 42t-73 101zM410 0l876 1374h144l-875 -1374h-145zM1124 207v94l426 475h125v-477h148v-92h-148v-242h-149v242h-402z M1241 299h285v319z" />
<glyph unicode="&#xbf;" horiz-adv-x="997" d="M78 362q0 303 428 441v186h133v-276q-295 -103 -295 -351q0 -122 69 -190t195 -68h6l93 232q14 2 41 2q72 0 111.5 -33.5t39.5 -93.5q0 -96 -99 -161.5t-263 -65.5q-209 0 -334 105t-125 273zM416 1245q0 65 44.5 109.5t108.5 44.5q63 0 108.5 -45t45.5 -109 q0 -66 -45.5 -112t-108.5 -46q-64 0 -108.5 46t-44.5 112z" />
<glyph unicode="&#xc0;" horiz-adv-x="1333" d="M-23 0v100l123 19l463 1270h215l471 -1268l121 -21v-100h-553v100l129 13l15 26l-123 348h-447l-123 -346l21 -26l129 -15v-100h-441zM332 1903h254l198 -390h-139zM430 602h361l-183 506z" />
<glyph unicode="&#xc1;" horiz-adv-x="1333" d="M-23 0v100l123 19l463 1270h215l471 -1268l121 -21v-100h-553v100l129 13l15 26l-123 348h-447l-123 -346l21 -26l129 -15v-100h-441zM430 602h361l-183 506zM578 1513l198 390h254l-315 -390h-137z" />
<glyph unicode="&#xc2;" horiz-adv-x="1333" d="M-23 0v100l123 19l463 1270h215l471 -1268l121 -21v-100h-553v100l129 13l15 26l-123 348h-447l-123 -346l21 -26l129 -15v-100h-441zM352 1513l226 390h180l225 -390h-158l-157 256l-156 -256h-160zM430 602h361l-183 506z" />
<glyph unicode="&#xc3;" horiz-adv-x="1333" d="M-23 0v100l123 19l463 1270h215l471 -1268l121 -21v-100h-553v100l129 13l15 26l-123 348h-447l-123 -346l21 -26l129 -15v-100h-441zM334 1550v35q0 118 46.5 181t131.5 63q52 0 110.5 -24t107 -48t77.5 -24q80 0 80 112v17h110v-33q0 -117 -47.5 -180.5t-130.5 -63.5 q-57 0 -118 23.5t-108.5 47t-70.5 23.5q-76 0 -76 -108v-21h-112zM430 602h361l-183 506z" />
<glyph unicode="&#xc4;" horiz-adv-x="1333" d="M-23 0v100l123 19l463 1270h215l471 -1268l121 -21v-100h-553v100l129 13l15 26l-123 348h-447l-123 -346l21 -26l129 -15v-100h-441zM326 1702q0 57 38.5 96t92.5 39q53 0 91 -39t38 -96q0 -56 -37.5 -94.5t-91.5 -38.5t-92.5 39t-38.5 94zM430 602h361l-183 506z M750 1702q0 57 37.5 96t91.5 39q53 0 91 -39t38 -96q0 -55 -38 -94t-91 -39q-55 0 -92 38.5t-37 94.5z" />
<glyph unicode="&#xc5;" horiz-adv-x="1333" d="M-23 0v100l123 19l463 1270h215l471 -1268l121 -21v-100h-553v100l129 13l15 26l-123 348h-447l-123 -346l21 -26l129 -15v-100h-441zM410 1729q0 101 68.5 172t168.5 71t170 -71t70 -172t-70 -171.5t-170 -70.5t-168.5 69.5t-68.5 172.5zM430 602h361l-183 506z M516 1729q0 -57 38.5 -96.5t92.5 -39.5q56 0 94.5 39.5t38.5 96.5t-39 97t-94 40q-54 0 -92.5 -39.5t-38.5 -97.5z" />
<glyph unicode="&#xc6;" horiz-adv-x="1822" d="M-119 0v100l123 15l672 1118l-23 31l-116 10v100h1163v-321h-144l-30 180l-27 27h-385v-488h244l28 29l21 147h119v-475h-119l-21 148l-28 28h-244v-532h451l28 33l35 217h139v-367h-1071v100l125 11l33 32v359h-457l-215 -361l15 -26l122 -15v-100h-438zM469 623h385 v639z" />
<glyph unicode="&#xc7;" horiz-adv-x="1306" d="M84 686q0 320 213 524q195 189 516 189q206 0 418 -76v-342h-152l-39 219l-28 35q-85 31 -162 31q-213 0 -339 -154.5t-126 -423.5q0 -274 131 -429t361 -155q46 0 124 19l31 31l51 247h148v-352q-207 -74 -430 -74q-219 0 -377 93q-160 95 -250 258.5t-90 359.5z M629 -352q90 -17 125 -17q127 0 127 76q0 31 -24.5 49.5t-68.5 18.5q-13 0 -45 -4v229h99v-117q10 2 32 2q79 0 122.5 -41t43.5 -114q0 -90 -66 -145.5t-179 -55.5q-76 0 -166 22v97z" />
<glyph unicode="&#xc8;" horiz-adv-x="1220" d="M59 0v100l125 11l33 32v1092l-33 29l-125 10v100h1033v-321h-144l-30 180l-27 27h-408v-488h267l28 29l21 147h121v-475h-121l-21 148l-28 28h-267v-532h475l27 33l35 217h139v-367h-1100zM274 1903h254l199 -390h-139z" />
<glyph unicode="&#xc9;" horiz-adv-x="1220" d="M59 0v100l125 11l33 32v1092l-33 29l-125 10v100h1033v-321h-144l-30 180l-27 27h-408v-488h267l28 29l21 147h121v-475h-121l-21 148l-28 28h-267v-532h475l27 33l35 217h139v-367h-1100zM520 1513l199 390h254l-316 -390h-137z" />
<glyph unicode="&#xca;" horiz-adv-x="1220" d="M59 0v100l125 11l33 32v1092l-33 29l-125 10v100h1033v-321h-144l-30 180l-27 27h-408v-488h267l28 29l21 147h121v-475h-121l-21 148l-28 28h-267v-532h475l27 33l35 217h139v-367h-1100zM295 1513l225 390h180l226 -390h-158l-158 256l-155 -256h-160z" />
<glyph unicode="&#xcb;" horiz-adv-x="1220" d="M59 0v100l125 11l33 32v1092l-33 29l-125 10v100h1033v-321h-144l-30 180l-27 27h-408v-488h267l28 29l21 147h121v-475h-121l-21 148l-28 28h-267v-532h475l27 33l35 217h139v-367h-1100zM268 1702q0 57 38.5 96t92.5 39q53 0 91 -39t38 -96q0 -56 -37.5 -94.5 t-91.5 -38.5t-92.5 39t-38.5 94zM692 1702q0 57 37.5 96t91.5 39q53 0 91 -39t38 -96q0 -55 -38 -94t-91 -39q-55 0 -92 38.5t-37 94.5z" />
<glyph unicode="&#xcc;" horiz-adv-x="724" d="M27 1903h254l198 -390h-139zM61 0v100l136 11l32 32v1092l-32 29l-136 10v100h613v-100l-137 -10l-33 -29v-1092l33 -32l137 -11v-100h-613z" />
<glyph unicode="&#xcd;" horiz-adv-x="724" d="M61 0v100l136 11l32 32v1092l-32 29l-136 10v100h613v-100l-137 -10l-33 -29v-1092l33 -32l137 -11v-100h-613zM272 1513l199 390h254l-315 -390h-138z" />
<glyph unicode="&#xce;" horiz-adv-x="724" d="M47 1513l225 390h181l225 -390h-158l-158 256l-155 -256h-160zM61 0v100l136 11l32 32v1092l-32 29l-136 10v100h613v-100l-137 -10l-33 -29v-1092l33 -32l137 -11v-100h-613z" />
<glyph unicode="&#xcf;" horiz-adv-x="724" d="M20 1702q0 57 39 96t93 39q53 0 91 -39t38 -96q0 -56 -37.5 -94.5t-91.5 -38.5t-93 39t-39 94zM61 0v100l136 11l32 32v1092l-32 29l-136 10v100h613v-100l-137 -10l-33 -29v-1092l33 -32l137 -11v-100h-613zM444 1702q0 57 37.5 96t91.5 39q53 0 91 -39t38 -96 q0 -55 -38 -94t-91 -39q-55 0 -92 38.5t-37 94.5z" />
<glyph unicode="&#xd0;" horiz-adv-x="1466" d="M31 657v125h184v449l-33 33l-123 10v100h596q354 0 547 -181.5t193 -506.5q0 -328 -191 -507t-549 -179h-596v100l123 11l33 32v514h-184zM487 115h119q244 0 364 142.5t120 430.5q0 289 -120 430.5t-364 141.5h-119v-478h289v-125h-289v-542z" />
<glyph unicode="&#xd1;" horiz-adv-x="1488" d="M51 1274v100h471v-55l627 -973v877l-37 39l-125 16v96h467v-96l-121 -16l-35 -39v-1223h-229l-709 1100v-948l33 -37l127 -17v-98h-467v98l121 17l37 37v1083l-29 29zM412 1550v35q0 118 46.5 181t131.5 63q52 0 110.5 -24t107 -48t77.5 -24q80 0 80 112v17h110v-33 q0 -117 -47.5 -180.5t-130.5 -63.5q-57 0 -118 23.5t-108.5 47t-70.5 23.5q-76 0 -76 -108v-21h-112z" />
<glyph unicode="&#xd2;" horiz-adv-x="1540" d="M84 694q0 337 211 533q193 178 479 178q262 0 451 -160q118 -101 180.5 -245.5t62.5 -317.5q0 -331 -219 -535q-93 -87 -212.5 -133.5t-248.5 -46.5q-318 0 -511 200t-193 527zM389 690q0 -276 108 -437t277 -161q171 0 279 158t108 426q0 279 -106 438.5t-277 159.5 q-173 0 -281 -156.5t-108 -427.5zM434 1903h254l199 -390h-139z" />
<glyph unicode="&#xd3;" horiz-adv-x="1540" d="M84 694q0 337 211 533q193 178 479 178q262 0 451 -160q118 -101 180.5 -245.5t62.5 -317.5q0 -331 -219 -535q-93 -87 -212.5 -133.5t-248.5 -46.5q-318 0 -511 200t-193 527zM389 690q0 -276 108 -437t277 -161q171 0 279 158t108 426q0 279 -106 438.5t-277 159.5 q-173 0 -281 -156.5t-108 -427.5zM680 1513l199 390h254l-316 -390h-137z" />
<glyph unicode="&#xd4;" horiz-adv-x="1540" d="M84 694q0 337 211 533q193 178 479 178q262 0 451 -160q118 -101 180.5 -245.5t62.5 -317.5q0 -331 -219 -535q-93 -87 -212.5 -133.5t-248.5 -46.5q-318 0 -511 200t-193 527zM389 690q0 -276 108 -437t277 -161q171 0 279 158t108 426q0 279 -106 438.5t-277 159.5 q-173 0 -281 -156.5t-108 -427.5zM455 1513l225 390h180l225 -390h-157l-158 256l-156 -256h-159z" />
<glyph unicode="&#xd5;" horiz-adv-x="1540" d="M84 694q0 337 211 533q193 178 479 178q262 0 451 -160q118 -101 180.5 -245.5t62.5 -317.5q0 -331 -219 -535q-93 -87 -212.5 -133.5t-248.5 -46.5q-318 0 -511 200t-193 527zM389 690q0 -276 108 -437t277 -161q171 0 279 158t108 426q0 279 -106 438.5t-277 159.5 q-173 0 -281 -156.5t-108 -427.5zM436 1550v35q0 118 46.5 181t131.5 63q52 0 110.5 -24t107 -48t77.5 -24q80 0 80 112v17h111v-33q0 -117 -47.5 -180.5t-130.5 -63.5q-57 0 -118.5 23.5t-108.5 47t-70 23.5q-76 0 -76 -108v-21h-113z" />
<glyph unicode="&#xd6;" horiz-adv-x="1540" d="M84 694q0 337 211 533q193 178 479 178q262 0 451 -160q118 -101 180.5 -245.5t62.5 -317.5q0 -331 -219 -535q-93 -87 -212.5 -133.5t-248.5 -46.5q-318 0 -511 200t-193 527zM389 690q0 -276 108 -437t277 -161q171 0 279 158t108 426q0 279 -106 438.5t-277 159.5 q-173 0 -281 -156.5t-108 -427.5zM428 1702q0 57 38.5 96t92.5 39q53 0 91 -39t38 -96q0 -56 -37.5 -94.5t-91.5 -38.5t-92.5 39t-38.5 94zM852 1702q0 57 37.5 96t91.5 39q53 0 91 -39t38 -96q0 -55 -38 -94t-91 -39q-55 0 -92 38.5t-37 94.5z" />
<glyph unicode="&#xd7;" horiz-adv-x="1705" d="M287 152l458 458l-458 461l116 117l459 -459l461 459l117 -117l-459 -461l459 -458l-117 -119l-461 461l-459 -461z" />
<glyph unicode="&#xd8;" horiz-adv-x="1540" d="M84 684q0 328 190 524.5t506 196.5q152 0 297 -62l117 199l100 -57l-116 -201q146 -117 219 -262.5t73 -337.5q0 -162 -57.5 -301.5t-165.5 -239.5q-188 -176 -483 -176q-167 0 -311 72l-121 -209l-94 68l116 200q-132 103 -201 253t-69 333zM377 705q0 -233 90 -414 l526 905q-93 78 -215 78q-176 0 -288.5 -154.5t-112.5 -414.5zM541 188q104 -94 237 -94q173 0 284.5 157.5t111.5 418.5q0 267 -101 432z" />
<glyph unicode="&#xd9;" horiz-adv-x="1443" d="M41 1274v100h588v-100l-127 -10l-29 -29v-717q0 -201 76 -291t258 -90q167 0 239 96t72 304v690l-31 35l-131 12v100h465v-100l-125 -12l-28 -35v-711q0 -283 -127 -412t-414 -129q-150 0 -262 43.5t-176 124.5q-55 72 -72.5 159.5t-17.5 223.5v709l-29 29zM387 1903h254 l199 -390h-140z" />
<glyph unicode="&#xda;" horiz-adv-x="1443" d="M41 1274v100h588v-100l-127 -10l-29 -29v-717q0 -201 76 -291t258 -90q167 0 239 96t72 304v690l-31 35l-131 12v100h465v-100l-125 -12l-28 -35v-711q0 -283 -127 -412t-414 -129q-150 0 -262 43.5t-176 124.5q-55 72 -72.5 159.5t-17.5 223.5v709l-29 29zM633 1513 l198 390h254l-315 -390h-137z" />
<glyph unicode="&#xdb;" horiz-adv-x="1443" d="M41 1274v100h588v-100l-127 -10l-29 -29v-717q0 -201 76 -291t258 -90q167 0 239 96t72 304v690l-31 35l-131 12v100h465v-100l-125 -12l-28 -35v-711q0 -283 -127 -412t-414 -129q-150 0 -262 43.5t-176 124.5q-55 72 -72.5 159.5t-17.5 223.5v709l-29 29zM408 1513 l225 390h180l225 -390h-157l-158 256l-156 -256h-159z" />
<glyph unicode="&#xdc;" horiz-adv-x="1443" d="M41 1274v100h588v-100l-127 -10l-29 -29v-717q0 -201 76 -291t258 -90q167 0 239 96t72 304v690l-31 35l-131 12v100h465v-100l-125 -12l-28 -35v-711q0 -283 -127 -412t-414 -129q-150 0 -262 43.5t-176 124.5q-55 72 -72.5 159.5t-17.5 223.5v709l-29 29zM381 1702 q0 57 38.5 96t92.5 39q53 0 91 -39t38 -96q0 -56 -37.5 -94.5t-91.5 -38.5t-92.5 39t-38.5 94zM805 1702q0 57 37.5 96t91.5 39q53 0 91 -39t38 -96q0 -55 -38 -94t-91 -39q-55 0 -92 38.5t-37 94.5z" />
<glyph unicode="&#xdd;" horiz-adv-x="1249" d="M-23 1274v100h560v-100l-115 -10l-19 -25l281 -520l293 502l-16 32l-123 23v98h446v-100l-121 -23l-389 -661v-449l33 -28l139 -11v-102h-614v102l137 11l33 28v400l-393 712zM535 1513l198 390h254l-315 -390h-137z" />
<glyph unicode="&#xde;" horiz-adv-x="1202" d="M66 0v100l122 11l35 32v1092l-28 29l-129 10v100h596v-100l-136 -10l-32 -33v-109h116q288 0 424.5 -97.5t136.5 -313.5q0 -212 -140.5 -330.5t-397.5 -118.5q-40 0 -139 6v-125l32 -32l136 -11v-100h-596zM494 385q50 -4 71 -4q324 0 324 324q0 303 -320 303 q-21 0 -75 -4v-619z" />
<glyph unicode="&#xdf;" horiz-adv-x="1314" d="M37 0v94l115 8l20 29v766q0 291 152 457t403 166q184 0 290.5 -99.5t106.5 -267.5q0 -89 -22 -188q-36 4 -55 4q-88 0 -138.5 -41t-50.5 -109q0 -22 4 -40t18 -35.5t21.5 -27t35.5 -28t36 -23.5t47 -28q136 -80 195 -148t59 -174q0 -142 -109.5 -236.5t-283.5 -94.5 q-120 0 -267 41v292h127l17 -190q51 -31 110 -31q77 0 123.5 43t46.5 111q0 23 -6 43t-13 35.5t-25.5 33.5t-31 29t-42.5 29t-46.5 27.5t-56.5 31t-61 33.5q-68 39 -106 99t-38 132q0 97 62.5 170t171.5 99q20 110 20 155q0 107 -51 170.5t-135 63.5q-252 0 -252 -490v-780 l8 -31l66 -10v-90h-465z" />
<glyph unicode="&#xe0;" horiz-adv-x="1114" d="M82 248q0 44 8.5 80.5t29.5 67t45.5 54.5t68 46t85.5 39t109 36t126.5 33.5t150.5 34.5v61q0 110 -47 161.5t-148 51.5q-42 0 -98 -12v-192h-189q-47 0 -70.5 17.5t-23.5 57.5q0 93 126 165.5t320 72.5q213 0 298 -82t85 -281v-530l27 -29l109 -10v-90h-365l-27 117 q-201 -135 -352 -135q-118 0 -193 74.5t-75 191.5zM221 1520h254l199 -390h-139zM352 293q0 -71 41 -112.5t111 -41.5q77 0 198 62v334q-191 -42 -270.5 -93.5t-79.5 -148.5z" />
<glyph unicode="&#xe1;" horiz-adv-x="1114" d="M82 248q0 44 8.5 80.5t29.5 67t45.5 54.5t68 46t85.5 39t109 36t126.5 33.5t150.5 34.5v61q0 110 -47 161.5t-148 51.5q-42 0 -98 -12v-192h-189q-47 0 -70.5 17.5t-23.5 57.5q0 93 126 165.5t320 72.5q213 0 298 -82t85 -281v-530l27 -29l109 -10v-90h-365l-27 117 q-201 -135 -352 -135q-118 0 -193 74.5t-75 191.5zM352 293q0 -71 41 -112.5t111 -41.5q77 0 198 62v334q-191 -42 -270.5 -93.5t-79.5 -148.5zM467 1130l199 390h254l-316 -390h-137z" />
<glyph unicode="&#xe2;" horiz-adv-x="1114" d="M82 248q0 44 8.5 80.5t29.5 67t45.5 54.5t68 46t85.5 39t109 36t126.5 33.5t150.5 34.5v61q0 110 -47 161.5t-148 51.5q-42 0 -98 -12v-192h-189q-47 0 -70.5 17.5t-23.5 57.5q0 93 126 165.5t320 72.5q213 0 298 -82t85 -281v-530l27 -29l109 -10v-90h-365l-27 117 q-201 -135 -352 -135q-118 0 -193 74.5t-75 191.5zM242 1130l225 390h180l225 -390h-157l-158 256l-156 -256h-159zM352 293q0 -71 41 -112.5t111 -41.5q77 0 198 62v334q-191 -42 -270.5 -93.5t-79.5 -148.5z" />
<glyph unicode="&#xe3;" horiz-adv-x="1114" d="M82 248q0 44 8.5 80.5t29.5 67t45.5 54.5t68 46t85.5 39t109 36t126.5 33.5t150.5 34.5v61q0 110 -47 161.5t-148 51.5q-42 0 -98 -12v-192h-189q-47 0 -70.5 17.5t-23.5 57.5q0 93 126 165.5t320 72.5q213 0 298 -82t85 -281v-530l27 -29l109 -10v-90h-365l-27 117 q-201 -135 -352 -135q-118 0 -193 74.5t-75 191.5zM223 1167v35q0 118 46.5 181t131.5 63q52 0 110.5 -24t107 -48t77.5 -24q80 0 80 112v17h111v-33q0 -117 -47.5 -180.5t-130.5 -63.5q-57 0 -118 23.5t-108.5 47t-70.5 23.5q-76 0 -76 -108v-21h-113zM352 293 q0 -71 41 -112.5t111 -41.5q77 0 198 62v334q-191 -42 -270.5 -93.5t-79.5 -148.5z" />
<glyph unicode="&#xe4;" horiz-adv-x="1114" d="M82 248q0 44 8.5 80.5t29.5 67t45.5 54.5t68 46t85.5 39t109 36t126.5 33.5t150.5 34.5v61q0 110 -47 161.5t-148 51.5q-42 0 -98 -12v-192h-189q-47 0 -70.5 17.5t-23.5 57.5q0 93 126 165.5t320 72.5q213 0 298 -82t85 -281v-530l27 -29l109 -10v-90h-365l-27 117 q-201 -135 -352 -135q-118 0 -193 74.5t-75 191.5zM215 1319q0 57 38.5 96t92.5 39q53 0 91 -39t38 -96q0 -56 -37.5 -94.5t-91.5 -38.5t-92.5 39t-38.5 94zM352 293q0 -71 41 -112.5t111 -41.5q77 0 198 62v334q-191 -42 -270.5 -93.5t-79.5 -148.5zM639 1319q0 57 37.5 96 t91.5 39q53 0 91 -39t38 -96q0 -55 -38 -94t-91 -39q-55 0 -92 38.5t-37 94.5z" />
<glyph unicode="&#xe5;" horiz-adv-x="1114" d="M82 248q0 44 8.5 80.5t29.5 67t45.5 54.5t68 46t85.5 39t109 36t126.5 33.5t150.5 34.5v61q0 110 -47 161.5t-148 51.5q-42 0 -98 -12v-192h-189q-47 0 -70.5 17.5t-23.5 57.5q0 93 126 165.5t320 72.5q213 0 298 -82t85 -281v-530l27 -29l109 -10v-90h-365l-27 117 q-201 -135 -352 -135q-118 0 -193 74.5t-75 191.5zM326 1362q0 100 70.5 171t168.5 71q100 0 170 -70.5t70 -171.5t-70 -172.5t-170 -71.5t-169.5 70.5t-69.5 173.5zM352 293q0 -71 41 -112.5t111 -41.5q77 0 198 62v334q-191 -42 -270.5 -93.5t-79.5 -148.5zM434 1362 q0 -57 38.5 -97t92.5 -40t93.5 40t39.5 97t-38.5 96t-94.5 39q-55 0 -93 -38.5t-38 -96.5z" />
<glyph unicode="&#xe6;" horiz-adv-x="1572" d="M84 254q0 56 14 99.5t49 79t77.5 62t116 52.5t146 45.5t185.5 46.5v61q0 112 -46 162.5t-147 50.5q-33 0 -82 -12v-192h-182q-45 0 -65.5 17t-20.5 58q0 94 120 166t306 72q196 0 295 -113q117 111 283 111q175 0 273.5 -119t98.5 -336q0 -8 -1 -24.5t-1 -24.5h-590v-248 q135 -123 304 -123q141 0 286 109v-152q-179 -120 -373 -120q-228 0 -397 149q-207 -151 -383 -151q-123 0 -194.5 74t-71.5 200zM346 293q0 -70 38 -112t103 -42q70 0 185 62v334q-183 -49 -254.5 -97.5t-71.5 -144.5zM909 623h334v28q0 256 -158 256q-173 0 -176 -284z " />
<glyph unicode="&#xe7;" horiz-adv-x="974" d="M72 487q0 233 148.5 382t379.5 149q155 0 246.5 -63.5t91.5 -159.5q0 -61 -41 -100.5t-106 -39.5q-68 0 -121 39v217q-35 7 -52 7q-111 0 -189.5 -105.5t-78.5 -275.5q0 -183 86 -287.5t230 -104.5q132 0 284 93v-146q-196 -108 -387 -108q-221 0 -356 139.5t-135 363.5z M381 -352q90 -17 125 -17q127 0 127 76q0 31 -24 49.5t-68 18.5q-13 0 -45 -4v229h98v-117q10 2 33 2q79 0 122.5 -41t43.5 -114q0 -90 -66.5 -145.5t-179.5 -55.5q-76 0 -166 22v97z" />
<glyph unicode="&#xe8;" horiz-adv-x="1073" d="M76 496q0 234 142 381t364 147q202 0 314 -121t112 -342v-39h-670v-6q0 -176 88.5 -275.5t241.5 -99.5q161 0 338 113v-152q-205 -120 -424 -120q-229 0 -367.5 141t-138.5 373zM201 1520h254l198 -390h-139zM348 631h391v22q0 126 -46 192t-132 66q-93 0 -151 -74 t-62 -206z" />
<glyph unicode="&#xe9;" horiz-adv-x="1073" d="M76 496q0 234 142 381t364 147q202 0 314 -121t112 -342v-39h-670v-6q0 -176 88.5 -275.5t241.5 -99.5q161 0 338 113v-152q-205 -120 -424 -120q-229 0 -367.5 141t-138.5 373zM348 631h391v22q0 126 -46 192t-132 66q-93 0 -151 -74t-62 -206zM446 1130l199 390h254 l-315 -390h-138z" />
<glyph unicode="&#xea;" horiz-adv-x="1073" d="M76 496q0 234 142 381t364 147q202 0 314 -121t112 -342v-39h-670v-6q0 -176 88.5 -275.5t241.5 -99.5q161 0 338 113v-152q-205 -120 -424 -120q-229 0 -367.5 141t-138.5 373zM221 1130l225 390h181l225 -390h-158l-157 256l-156 -256h-160zM348 631h391v22 q0 126 -46 192t-132 66q-93 0 -151 -74t-62 -206z" />
<glyph unicode="&#xeb;" horiz-adv-x="1073" d="M76 496q0 234 142 381t364 147q202 0 314 -121t112 -342v-39h-670v-6q0 -176 88.5 -275.5t241.5 -99.5q161 0 338 113v-152q-205 -120 -424 -120q-229 0 -367.5 141t-138.5 373zM195 1319q0 57 38.5 96t92.5 39q53 0 91 -39t38 -96q0 -56 -37.5 -94.5t-91.5 -38.5 t-92.5 39t-38.5 94zM348 631h391v22q0 126 -46 192t-132 66q-93 0 -151 -74t-62 -206zM618 1319q0 57 38 96t92 39q53 0 91 -39t38 -96q0 -55 -38 -94t-91 -39q-55 0 -92.5 38.5t-37.5 94.5z" />
<glyph unicode="&#xec;" horiz-adv-x="624" d="M-23 1520h254l199 -390h-139zM61 0v92l111 8l29 31v707h-135v82l288 96h99v-885l30 -31l115 -8v-92h-537z" />
<glyph unicode="&#xed;" horiz-adv-x="624" d="M61 0v92l111 8l29 31v707h-135v82l288 96h99v-885l30 -31l115 -8v-92h-537zM223 1130l199 390h254l-316 -390h-137z" />
<glyph unicode="&#xee;" horiz-adv-x="624" d="M-2 1130l225 390h180l226 -390h-158l-158 256l-155 -256h-160zM61 0v92l111 8l29 31v707h-135v82l288 96h99v-885l30 -31l115 -8v-92h-537z" />
<glyph unicode="&#xef;" horiz-adv-x="624" d="M-29 1319q0 57 38.5 96t92.5 39q53 0 91 -39t38 -96q0 -56 -37.5 -94.5t-91.5 -38.5t-92.5 39t-38.5 94zM61 0v92l111 8l29 31v707h-135v82l288 96h99v-885l30 -31l115 -8v-92h-537zM395 1319q0 57 37.5 96t91.5 39q53 0 91 -39t38 -96q0 -55 -38 -94t-91 -39 q-55 0 -92 38.5t-37 94.5z" />
<glyph unicode="&#xf0;" horiz-adv-x="1165" d="M72 498q0 220 137.5 358.5t353.5 138.5q85 0 146 -10q-60 98 -144 199l-246 -146l-49 90l224 132l-66 73l-166 8l-6 72l297 111l154 -154l219 127l51 -88l-205 -121q332 -388 332 -745q0 -257 -139 -409t-365 -152q-242 0 -385 141t-143 375zM352 496q0 -197 64 -301.5 t180 -104.5q115 0 177.5 111.5t62.5 324.5q0 204 -72 342q-80 25 -133 25q-132 0 -205.5 -102.5t-73.5 -294.5z" />
<glyph unicode="&#xf1;" horiz-adv-x="1239" d="M57 838v82l295 96h99v-121q227 125 350 125q278 0 278 -340v-549l27 -31l108 -8v-92h-501v92l88 8l28 31v490q0 115 -44 168t-140 53q-75 0 -194 -35v-676l28 -31l90 -8v-92h-506v92l105 8l29 31v707h-140zM287 1167v35q0 118 46.5 181t131.5 63q52 0 110.5 -24t107 -48 t77.5 -24q80 0 80 112v17h110v-33q0 -117 -47.5 -180.5t-130.5 -63.5q-57 0 -118.5 23.5t-108.5 47t-70 23.5q-76 0 -76 -108v-21h-112z" />
<glyph unicode="&#xf2;" horiz-adv-x="1181" d="M76 498q0 237 144.5 380.5t385.5 143.5q236 0 375 -142t139 -386q0 -229 -144.5 -369.5t-385.5 -140.5q-231 0 -372.5 141.5t-141.5 372.5zM256 1520h254l199 -390h-140zM360 506q0 -198 63.5 -306t172.5 -108q115 0 178.5 105t63.5 303t-64.5 305.5t-175.5 107.5 q-110 0 -174 -106t-64 -301z" />
<glyph unicode="&#xf3;" horiz-adv-x="1181" d="M76 498q0 237 144.5 380.5t385.5 143.5q236 0 375 -142t139 -386q0 -229 -144.5 -369.5t-385.5 -140.5q-231 0 -372.5 141.5t-141.5 372.5zM360 506q0 -198 63.5 -306t172.5 -108q115 0 178.5 105t63.5 303t-64.5 305.5t-175.5 107.5q-110 0 -174 -106t-64 -301z M502 1130l198 390h254l-315 -390h-137z" />
<glyph unicode="&#xf4;" horiz-adv-x="1181" d="M76 498q0 237 144.5 380.5t385.5 143.5q236 0 375 -142t139 -386q0 -229 -144.5 -369.5t-385.5 -140.5q-231 0 -372.5 141.5t-141.5 372.5zM276 1130l226 390h180l225 -390h-157l-158 256l-156 -256h-160zM360 506q0 -198 63.5 -306t172.5 -108q115 0 178.5 105t63.5 303 t-64.5 305.5t-175.5 107.5q-110 0 -174 -106t-64 -301z" />
<glyph unicode="&#xf5;" horiz-adv-x="1181" d="M76 498q0 237 144.5 380.5t385.5 143.5q236 0 375 -142t139 -386q0 -229 -144.5 -369.5t-385.5 -140.5q-231 0 -372.5 141.5t-141.5 372.5zM258 1167v35q0 118 46.5 181t131.5 63q52 0 110.5 -24t107 -48t77.5 -24q80 0 80 112v17h111v-33q0 -117 -48 -180.5t-131 -63.5 q-57 0 -118 23.5t-108.5 47t-70.5 23.5q-75 0 -75 -108v-21h-113zM360 506q0 -198 63.5 -306t172.5 -108q115 0 178.5 105t63.5 303t-64.5 305.5t-175.5 107.5q-110 0 -174 -106t-64 -301z" />
<glyph unicode="&#xf6;" horiz-adv-x="1181" d="M76 498q0 237 144.5 380.5t385.5 143.5q236 0 375 -142t139 -386q0 -229 -144.5 -369.5t-385.5 -140.5q-231 0 -372.5 141.5t-141.5 372.5zM250 1319q0 57 38.5 96t92.5 39q53 0 91 -39t38 -96q0 -56 -37.5 -94.5t-91.5 -38.5t-92.5 39t-38.5 94zM360 506 q0 -198 63.5 -306t172.5 -108q115 0 178.5 105t63.5 303t-64.5 305.5t-175.5 107.5q-110 0 -174 -106t-64 -301zM674 1319q0 57 37.5 96t91.5 39q53 0 91 -39t38 -96q0 -55 -38 -94t-91 -39q-55 0 -92 38.5t-37 94.5z" />
<glyph unicode="&#xf7;" horiz-adv-x="1705" d="M254 528v166h1198v-166h-1198zM717 229q0 57 40.5 97.5t96.5 40.5q57 0 97 -40.5t40 -97.5q0 -56 -39.5 -95.5t-97.5 -39.5t-97.5 39t-39.5 96zM717 989q0 57 40.5 98t96.5 41q57 0 97 -41t40 -98q0 -56 -39.5 -95.5t-97.5 -39.5t-97.5 39t-39.5 96z" />
<glyph unicode="&#xf8;" horiz-adv-x="1181" d="M76 500q0 238 142 379t386 141q95 0 193 -31l100 180l86 -49l-96 -172q233 -142 233 -442q0 -235 -140.5 -378.5t-365.5 -143.5q-144 0 -245 41l-111 -195l-84 55l107 187q-205 150 -205 428zM348 514q0 -134 37 -252l342 606q-60 45 -133 45q-111 0 -178.5 -105.5 t-67.5 -293.5zM444 160q56 -68 150 -68q119 0 185.5 102t66.5 291q0 185 -55 295z" />
<glyph unicode="&#xf9;" horiz-adv-x="1228" d="M47 844v80l289 98h98v-635q0 -121 45 -175t150 -54q67 0 176 32v654h-133v80l291 98h94v-891l28 -31l107 -8v-92h-387v113q-201 -131 -344 -131q-142 0 -211.5 86.5t-69.5 263.5v512h-133zM279 1520h253l199 -390h-139z" />
<glyph unicode="&#xfa;" horiz-adv-x="1228" d="M47 844v80l289 98h98v-635q0 -121 45 -175t150 -54q67 0 176 32v654h-133v80l291 98h94v-891l28 -31l107 -8v-92h-387v113q-201 -131 -344 -131q-142 0 -211.5 86.5t-69.5 263.5v512h-133zM524 1130l199 390h254l-315 -390h-138z" />
<glyph unicode="&#xfb;" horiz-adv-x="1228" d="M47 844v80l289 98h98v-635q0 -121 45 -175t150 -54q67 0 176 32v654h-133v80l291 98h94v-891l28 -31l107 -8v-92h-387v113q-201 -131 -344 -131q-142 0 -211.5 86.5t-69.5 263.5v512h-133zM299 1130l225 390h181l225 -390h-158l-158 256l-155 -256h-160z" />
<glyph unicode="&#xfc;" horiz-adv-x="1228" d="M47 844v80l289 98h98v-635q0 -121 45 -175t150 -54q67 0 176 32v654h-133v80l291 98h94v-891l28 -31l107 -8v-92h-387v113q-201 -131 -344 -131q-142 0 -211.5 86.5t-69.5 263.5v512h-133zM272 1319q0 57 38.5 96t92.5 39q53 0 91 -39t38 -96q0 -56 -37.5 -94.5 t-91.5 -38.5t-92.5 39t-38.5 94zM696 1319q0 57 37.5 96t91.5 39q53 0 91 -39t38 -96q0 -55 -38 -94t-91 -39q-55 0 -92 38.5t-37 94.5z" />
<glyph unicode="&#xfd;" horiz-adv-x="1054" d="M-8 907v88h520v-88l-104 -12l-21 -29l221 -579l223 577l-18 31l-108 12v88h393v-88l-111 -18l-395 -961q-74 -179 -176 -278t-205 -99q-73 0 -124.5 46t-51.5 106q0 90 106 145l178 -122q86 69 160 249l-364 914zM438 1130l199 390h254l-316 -390h-137z" />
<glyph unicode="&#xfe;" horiz-adv-x="1210" d="M41 1335v80l309 98h90v-620q186 129 324 129q165 0 276 -135.5t111 -347.5q0 -247 -146.5 -394t-396.5 -147q-66 0 -168 12v-327l31 -29l131 -8l-2 -95h-549v95l113 10l26 31v1648h-149zM440 123q66 -14 131 -14q137 0 220 106.5t83 288.5q0 162 -73 252t-199 90 q-70 0 -162 -39v-684z" />
<glyph unicode="&#xff;" horiz-adv-x="1054" d="M-8 907v88h520v-88l-104 -12l-21 -29l221 -579l223 577l-18 31l-108 12v88h393v-88l-111 -18l-395 -961q-74 -179 -176 -278t-205 -99q-73 0 -124.5 46t-51.5 106q0 90 106 145l178 -122q86 69 160 249l-364 914zM186 1319q0 57 38.5 96t92.5 39q53 0 91 -39t38 -96 q0 -56 -37.5 -94.5t-91.5 -38.5t-92.5 39t-38.5 94zM610 1319q0 57 37.5 96t91.5 39q53 0 91 -39t38 -96q0 -55 -38 -94t-91 -39q-55 0 -92 38.5t-37 94.5z" />
<glyph unicode="&#x152;" horiz-adv-x="2068" d="M82 688q0 318 173.5 512.5t451.5 194.5q135 0 237 -54t162 -157v190h833v-321h-141l-26 168l-35 39h-381v-488h243l29 29l17 147h120v-475h-120l-17 145l-31 35h-241v-536h448l29 33l35 217h139v-367h-901v201q-164 -224 -420 -224q-168 0 -305 89q-141 92 -220 253 t-79 369zM383 692q0 -268 102 -423.5t260 -155.5q161 0 263 153t102 414q0 271 -100 426.5t-262 155.5q-161 0 -263 -154t-102 -416z" />
<glyph unicode="&#x153;" horiz-adv-x="1763" d="M76 500q0 235 137 377.5t360 142.5q234 0 375 -162q141 164 348 164q187 0 292.5 -120.5t105.5 -338.5v-41h-633q1 -178 86 -276.5t233 -98.5q155 0 310 107v-152q-181 -118 -387 -118q-223 0 -365 161q-154 -161 -371 -161q-220 0 -355.5 141.5t-135.5 374.5zM352 506 q0 -199 61 -306.5t167 -107.5q105 0 164 105.5t59 302.5q0 199 -59.5 306t-165.5 107q-105 0 -165.5 -106t-60.5 -301zM1069 631h356v24q0 125 -42 190.5t-121 65.5q-83 0 -135 -73t-58 -207z" />
<glyph unicode="&#x178;" horiz-adv-x="1249" d="M-23 1274v100h560v-100l-115 -10l-19 -25l281 -520l293 502l-16 32l-123 23v98h446v-100l-121 -23l-389 -661v-449l33 -28l139 -11v-102h-614v102l137 11l33 28v400l-393 712zM283 1702q0 57 38.5 96t92.5 39q53 0 91 -39t38 -96q0 -56 -37.5 -94.5t-91.5 -38.5t-92.5 39 t-38.5 94zM707 1702q0 57 37.5 96t91.5 39q53 0 91 -39t38 -96q0 -55 -38 -94t-91 -39q-55 0 -92 38.5t-37 94.5z" />
<glyph unicode="&#x2c6;" horiz-adv-x="1024" d="M197 1130l225 390h180l225 -390h-157l-158 256l-156 -256h-159z" />
<glyph unicode="&#x2dc;" horiz-adv-x="1024" d="M178 1167v35q0 118 46.5 181t131.5 63q52 0 110.5 -24t107 -48t77.5 -24q80 0 80 112v17h111v-33q0 -117 -47.5 -180.5t-130.5 -63.5q-57 0 -118.5 23.5t-108.5 47t-70 23.5q-76 0 -76 -108v-21h-113z" />
<glyph unicode="&#x2000;" horiz-adv-x="986" />
<glyph unicode="&#x2001;" horiz-adv-x="1972" />
<glyph unicode="&#x2002;" horiz-adv-x="986" />
<glyph unicode="&#x2003;" horiz-adv-x="1972" />
<glyph unicode="&#x2004;" horiz-adv-x="657" />
<glyph unicode="&#x2005;" horiz-adv-x="493" />
<glyph unicode="&#x2006;" horiz-adv-x="328" />
<glyph unicode="&#x2007;" horiz-adv-x="328" />
<glyph unicode="&#x2008;" horiz-adv-x="246" />
<glyph unicode="&#x2009;" horiz-adv-x="394" />
<glyph unicode="&#x200a;" horiz-adv-x="109" />
<glyph unicode="&#x2010;" horiz-adv-x="667" d="M74 393v201h520v-201h-520z" />
<glyph unicode="&#x2011;" horiz-adv-x="667" d="M74 393v201h520v-201h-520z" />
<glyph unicode="&#x2012;" horiz-adv-x="667" d="M74 393v201h520v-201h-520z" />
<glyph unicode="&#x2013;" horiz-adv-x="1024" d="M0 399v187h1024v-187h-1024z" />
<glyph unicode="&#x2014;" horiz-adv-x="2048" d="M0 401v185h2048v-185h-2048z" />
<glyph unicode="&#x2018;" horiz-adv-x="522" d="M102 1020q0 130 79 236.5t229 173.5l43 -62q-191 -117 -191 -278q0 -23 2 -35h123q39 -48 39 -103q0 -63 -40 -103t-103 -40q-80 0 -130.5 57.5t-50.5 153.5z" />
<glyph unicode="&#x2019;" horiz-adv-x="522" d="M98 870q191 114 191 281q0 21 -2 33h-123q-39 48 -39 104q0 63 38.5 102.5t102.5 39.5q82 0 132.5 -57.5t50.5 -155.5q0 -128 -79.5 -235.5t-228.5 -172.5z" />
<glyph unicode="&#x201a;" horiz-adv-x="522" d="M68 -295q190 117 190 281q0 22 -2 34h-123q-37 46 -37 103q0 63 38 102t102 39q82 0 132 -57.5t50 -153.5q0 -129 -78 -235.5t-227 -173.5z" />
<glyph unicode="&#x201c;" horiz-adv-x="972" d="M102 1020q0 131 78.5 237t229.5 173l45 -62q-193 -117 -193 -281q0 -22 2 -32h125q37 -42 37 -105t-38.5 -102t-102.5 -39q-81 0 -132 57.5t-51 153.5zM555 1022q0 129 79 235t228 173l45 -62q-192 -116 -192 -281q0 -20 2 -32h123q39 -48 39 -103q0 -63 -40 -103 t-104 -40q-80 0 -130 58.5t-50 154.5z" />
<glyph unicode="&#x201d;" horiz-adv-x="972" d="M98 870q193 117 193 281q0 23 -2 33h-125q-39 42 -39 104q0 63 39.5 102.5t103.5 39.5q82 0 132.5 -58t50.5 -153q0 -130 -80.5 -238t-229.5 -172zM551 870q190 117 190 279q0 23 -2 35h-123q-38 41 -38 102q0 65 38.5 104.5t102.5 39.5q82 0 132 -58t50 -153 q0 -131 -79 -238t-228 -172z" />
<glyph unicode="&#x201e;" horiz-adv-x="972" d="M74 -295q190 117 190 281q0 22 -2 34h-123q-39 42 -39 103q0 64 39.5 102.5t104.5 38.5q82 0 132 -57t50 -152q0 -130 -80 -238t-229 -173zM526 -295q191 120 191 281q0 22 -2 34h-123q-39 42 -39 103q0 63 38.5 102t102.5 39q82 0 132.5 -57.5t50.5 -153.5 q0 -129 -79.5 -235.5t-228.5 -173.5z" />
<glyph unicode="&#x2022;" horiz-adv-x="1208" d="M307 762q0 123 87 209t210 86q122 0 208.5 -86t86.5 -209q0 -122 -87 -209.5t-210 -87.5t-209 87t-86 210z" />
<glyph unicode="&#x2026;" horiz-adv-x="2048" d="M180 145q0 69 47 116.5t113 47.5q68 0 116 -48.5t48 -115.5t-48 -114t-116 -47q-66 0 -113 47t-47 114zM862 145q0 69 47 116.5t113 47.5q68 0 116 -48.5t48 -115.5t-48 -114t-116 -47q-66 0 -113 47t-47 114zM1546 145q0 69 47 116.5t113 47.5q68 0 116 -48.5t48 -115.5 t-48 -114t-116 -47q-66 0 -113 47t-47 114z" />
<glyph unicode="&#x202f;" horiz-adv-x="394" />
<glyph unicode="&#x2039;" horiz-adv-x="522" d="M72 406v172l352 294v-172l-221 -208l221 -209v-172z" />
<glyph unicode="&#x203a;" horiz-adv-x="522" d="M78 111v172l221 209l-221 208v172l352 -294v-172z" />
<glyph unicode="&#x205f;" horiz-adv-x="493" />
<glyph unicode="&#x2122;" horiz-adv-x="1638" d="M227 1204v152h473v-152h-61l-14 90l-15 11h-86v-426l70 -13v-51h-260v51l72 13v426h-87l-14 -11l-14 -90h-64zM752 815v51l63 13v413l-63 11v53h231v-27l119 -346l121 344v29h229v-53l-66 -13v-411l66 -13v-51h-235v49l57 15v407l-168 -471h-64l-161 471v-407l61 -13v-51 h-190z" />
<glyph unicode="&#x25fc;" horiz-adv-x="993" d="M0 0v993h993v-993h-993z" />
<glyph unicode="&#xfb01;" horiz-adv-x="1273" d="M63 0v92l103 8l31 31v717h-134v78l134 61v8q0 280 198 435q122 96 252 96q77 0 121.5 -36t44.5 -95q0 -85 -94 -142l-199 166q-74 -92 -74 -325v-123h449l113 55h92v-895l28 -31l109 -8v-92h-522v92l104 8l31 31v717h-404v-717l33 -31l107 -8v-92h-523zM856 1329 q0 63 39 102t102 39q57 0 96.5 -40.5t39.5 -100.5q0 -61 -41 -102t-99 -41t-97.5 40.5t-39.5 102.5z" />
<glyph unicode="&#xfb02;" horiz-adv-x="1284" d="M63 0v92l103 8l31 31v717h-134v78l134 61v8q0 274 188 428q121 103 266 103q134 0 174 -101l209 99h76v-1389l31 -33l119 -12v-90h-543v90l110 12l33 29v1200h-74l-63 -76l-195 168q-82 -88 -82 -329v-123h277v-123h-277v-717l33 -31l107 -8v-92h-523z" />
</font>
</defs>
</svg>
