<?xml version="1.0" standalone="no"?>
<!DOCTYPE svg PUBLIC "-//W3C//DTD SVG 1.1//EN" "http://www.w3.org/Graphics/SVG/1.1/DTD/svg11.dtd" >
<svg xmlns="http://www.w3.org/2000/svg" xmlns:xlink="http://www.w3.org/1999/xlink" version="1.1">
<metadata></metadata>
<defs>
<font id="charterregular" horiz-adv-x="1138" >
<font-face units-per-em="2048" ascent="1561" descent="-487" />
<missing-glyph horiz-adv-x="569" />
<glyph horiz-adv-x="0" />
<glyph horiz-adv-x="682" />
<glyph unicode=" "  horiz-adv-x="569" />
<glyph unicode="&#x09;" horiz-adv-x="569" />
<glyph unicode="&#xa0;" horiz-adv-x="569" />
<glyph unicode="!" horiz-adv-x="692" d="M229 98q0 49 34.5 83t82.5 34q50 0 83.5 -33.5t33.5 -83.5q0 -48 -34 -82t-83 -34q-48 0 -82.5 33.5t-34.5 82.5zM233 1251q0 148 113 148t113 -148q0 -33 -6 -118l-58 -783h-98l-57 783q-7 79 -7 118z" />
<glyph unicode="&#x22;" horiz-adv-x="677" d="M90 1362q0 49 22 74.5t62 25.5t63 -25.5t23 -74.5q0 -9 -4 -41l-66 -457h-32l-64 457q-4 28 -4 41zM418 1360q0 50 22.5 76t63.5 26q40 0 62 -25.5t22 -74.5q0 -25 -2 -41l-68 -457h-31l-65 457q-4 28 -4 39z" />
<glyph unicode="#" horiz-adv-x="1525" d="M131 471v96h326l98 299h-324v97h357l170 491l96 -37l-162 -454h316l163 489l97 -35l-160 -454h285v-97h-318l-100 -299h334v-96h-367l-172 -518l-96 33l164 485h-314l-170 -518l-96 33l168 485h-295zM561 567h305l105 299h-309z" />
<glyph unicode="$" d="M119 51v344h94l37 -223l18 -27q105 -51 262 -51v535q-374 85 -374 372q0 142 97.5 240.5t276.5 128.5v152h86v-146h17q136 0 330 -45v-319h-93l-30 190l-31 43q-93 35 -193 35v-502q214 -58 309 -146t95 -239q0 -148 -107.5 -254t-296.5 -139v-209h-86v209 q-255 9 -411 51zM330 1038q0 -171 200 -235v471q-96 -22 -148 -84t-52 -152zM621 102q106 17 167.5 86t61.5 168q0 179 -229 246v-500z" />
<glyph unicode="%" horiz-adv-x="1744" d="M63 971q0 200 84 314t224 114t223.5 -114t83.5 -314q0 -202 -83 -316t-224 -114t-224.5 113.5t-83.5 316.5zM207 971q0 -176 41 -266.5t119 -90.5q80 0 121.5 90.5t41.5 266.5q0 175 -42 264.5t-121 89.5q-77 0 -118.5 -90.5t-41.5 -263.5zM371 0l874 1374h125 l-876 -1374h-123zM1067 406q0 200 83.5 314t223.5 114t223.5 -114t83.5 -314q0 -202 -83 -316.5t-224 -114.5t-224 114t-83 317zM1210 406q0 -176 41 -266.5t119 -90.5q80 0 122 90.5t42 266.5q0 175 -42.5 265.5t-121.5 90.5q-77 0 -118.5 -91t-41.5 -265z" />
<glyph unicode="&#x26;" horiz-adv-x="1441" d="M109 379q0 243 270 366q-86 85 -127 159t-41 155q0 142 106.5 241t266.5 99q159 0 255.5 -88t96.5 -219q0 -121 -70.5 -204.5t-228.5 -156.5l352 -381q96 138 115 242l-37 39l-113 16v82h416v-82l-147 -20q-58 -198 -170 -348l159 -185l187 -10v-84h-361v49l-92 103 q-204 -177 -401 -177q-190 0 -313 116t-123 288zM297 422q0 -140 85 -232t216 -92q156 0 285 123l-426 465q-83 -56 -121.5 -119t-38.5 -145zM375 1104q0 -76 46 -147t144 -158q104 48 152.5 115.5t48.5 166.5q0 102 -54.5 163t-146.5 61q-82 0 -136 -57t-54 -144z" />
<glyph unicode="'" horiz-adv-x="348" d="M90 1360q0 102 84 102q40 0 63 -25.5t23 -74.5q0 -9 -4 -41l-66 -457h-32l-66 457q-2 14 -2 39z" />
<glyph unicode="(" horiz-adv-x="854" d="M217 584q0 397 149 624.5t425 261.5v-86q-208 -36 -304 -232.5t-96 -569.5q0 -363 98 -557.5t302 -229.5v-86q-270 31 -422 258.5t-152 616.5z" />
<glyph unicode=")" horiz-adv-x="854" d="M63 -205q204 35 302 229.5t98 557.5q0 373 -96 569.5t-304 232.5v86q276 -34 425 -261.5t149 -624.5q0 -389 -152 -616.5t-422 -258.5v86z" />
<glyph unicode="*" horiz-adv-x="1024" d="M111 1169l141 37l223 -143l-8 -25l-264 17zM266 692l8 148l205 166l21 -15l-97 -248zM432 1346l80 124l80 -124l-66 -256h-28zM522 991l23 15l203 -166l8 -148l-138 53zM551 1065l221 141l143 -37l-94 -114l-262 -17z" />
<glyph unicode="+" horiz-adv-x="1705" d="M254 553v117h541v551h118v-551h539v-117h-539v-553h-118v553h-541z" />
<glyph unicode="," horiz-adv-x="569" d="M80 -279q225 43 225 271v22h-131q-33 36 -33 90q0 51 34 82t87 31q77 0 120.5 -53.5t43.5 -151.5q0 -135 -97 -238t-249 -120v67z" />
<glyph unicode="-" horiz-adv-x="653" d="M96 424v137h461v-137h-461z" />
<glyph unicode="." horiz-adv-x="569" d="M154 111q0 55 38.5 93t92.5 38t91.5 -38t37.5 -93q0 -54 -37.5 -91.5t-91.5 -37.5q-55 0 -93 37t-38 92z" />
<glyph unicode="/" horiz-adv-x="985" d="M-57 -190l874 1564h125l-876 -1564h-123z" />
<glyph unicode="0" d="M84 688q0 336 131 523.5t354 187.5t354.5 -188t131.5 -523q0 -336 -131.5 -524.5t-354.5 -188.5t-354 188.5t-131 524.5zM276 686q0 -302 75.5 -457t217.5 -155t216.5 155.5t74.5 458.5t-74.5 459t-216.5 156t-217.5 -156.5t-75.5 -460.5z" />
<glyph unicode="1" d="M193 1180v86l444 133h57v-1272l25 -31l221 -10v-86h-686v88l235 12l25 35v1102z" />
<glyph unicode="2" d="M86 0v129q97 79 160 131.5t138.5 118t123 112t98.5 102t81 101t56 95.5t37 98t11 98q0 146 -72.5 227.5t-200.5 81.5q-97 0 -182 -49v-219q-45 -31 -92 -31q-54 0 -84.5 31t-30.5 84q0 112 125 200.5t309 88.5q196 0 311 -106t115 -281q0 -76 -31 -154t-83.5 -152 t-145 -165t-192 -176t-248.5 -203h616l37 174h92v-336h-948z" />
<glyph unicode="3" d="M84 203q0 44 33 74t82 30q32 0 61 -10l64 -174q82 -49 174 -49q139 0 230 93t91 230q0 122 -78 189t-225 67q-56 0 -108 -8v121q7 0 21.5 -1t21.5 -1q154 0 235.5 69t81.5 195q0 121 -70.5 193.5t-189.5 72.5q-110 0 -195 -59v-193q-36 -26 -84 -26q-49 0 -79.5 30 t-30.5 80q0 106 123.5 189.5t308.5 83.5q184 0 293.5 -94t109.5 -250q0 -119 -77.5 -204t-227.5 -128q169 -12 264 -100.5t95 -229.5q0 -176 -144 -296t-375 -120q-174 0 -289.5 71t-115.5 155z" />
<glyph unicode="4" d="M55 397v133l699 856h118v-856h232v-133h-232v-473h-157v473h-660zM209 530h506v633z" />
<glyph unicode="5" d="M102 174q0 47 33.5 78t85.5 31q14 0 49 -7l82 -176q68 -24 137 -24q144 0 234 92t90 235q0 157 -105.5 232.5t-320.5 75.5q-107 0 -180 -13v676h733v-160h-606v-409q115 33 219 33q204 0 326 -109t122 -285q0 -202 -149 -332t-397 -130q-153 0 -253 58t-100 134z" />
<glyph unicode="6" d="M102 567q0 393 214.5 631.5t590.5 263.5v-119h-6q-246 0 -399.5 -142t-200.5 -415q162 125 348 125q184 0 305 -126t121 -320q0 -207 -142.5 -348.5t-352.5 -141.5q-211 0 -344.5 160t-133.5 432zM293 571q0 -243 78.5 -370t224.5 -127q128 0 210.5 104.5t82.5 267.5 q0 157 -81.5 249.5t-213.5 92.5q-170 0 -297 -92q-4 -43 -4 -125z" />
<glyph unicode="7" d="M145 1032v342h942v-82l-679 -1323v-45h-170l667 1295h-631l-32 -187h-97z" />
<glyph unicode="8" d="M90 362q0 246 281 355q-215 90 -215 315q0 164 117.5 267.5t306.5 103.5q182 0 290.5 -96t108.5 -248q0 -102 -61.5 -191t-174.5 -149q144 -51 218.5 -141t74.5 -211q0 -167 -132 -283.5t-341 -116.5q-218 0 -345.5 109.5t-127.5 285.5zM248 375q0 -136 87 -218.5 t234 -82.5q132 0 211.5 75t79.5 197q0 40 -10.5 73t-36 61.5t-55.5 51.5t-81.5 48t-101 45t-126.5 49q-105 -56 -153 -126.5t-48 -172.5zM326 1063q0 -100 80.5 -173t250.5 -134q79 52 121.5 126t42.5 156q0 123 -67.5 195t-180.5 72q-105 0 -176 -70t-71 -172z" />
<glyph unicode="9" d="M88 911q0 213 139.5 348.5t360.5 135.5q216 0 338.5 -139t122.5 -386q0 -202 -91.5 -388t-271 -339.5t-428.5 -248.5l-47 94q239 111 388 249.5t216 313.5q-174 -80 -307 -80q-187 0 -303.5 121t-116.5 319zM281 934q0 -170 78.5 -261t224.5 -91q119 0 258 71 q24 108 24 207q0 213 -78 325.5t-219 112.5q-128 0 -208 -98.5t-80 -265.5z" />
<glyph unicode=":" horiz-adv-x="653" d="M197 111q0 55 37.5 93t91.5 38t92.5 -38t38.5 -93q0 -54 -38.5 -91.5t-92.5 -37.5t-91.5 37t-37.5 92zM197 856q0 55 37.5 92t91.5 37q55 0 93 -37t38 -92q0 -54 -38.5 -92.5t-92.5 -38.5t-91.5 38.5t-37.5 92.5z" />
<glyph unicode=";" horiz-adv-x="653" d="M133 -279q225 43 225 271v22h-133q-32 35 -32 90q0 51 33.5 82t86.5 31q77 0 120.5 -53.5t43.5 -151.5q0 -135 -96 -238t-248 -120v67zM197 856q0 55 37.5 92t91.5 37q55 0 93 -37t38 -92q0 -54 -38.5 -92.5t-92.5 -38.5t-91.5 38.5t-37.5 92.5z" />
<glyph unicode="&#x3c;" horiz-adv-x="1705" d="M264 559v103l1178 483v-127l-1000 -408l1000 -405v-129z" />
<glyph unicode="=" horiz-adv-x="1705" d="M254 360v117h1198v-117h-1198zM254 743v117h1198v-117h-1198z" />
<glyph unicode="&#x3e;" horiz-adv-x="1705" d="M264 76v129l1000 405l-1000 408v127l1178 -483v-103z" />
<glyph unicode="?" horiz-adv-x="995" d="M113 1208q0 79 84 135t217 56q195 0 310.5 -102t115.5 -269q0 -143 -92 -249t-283 -189v-240h-109v299q297 112 297 367q0 137 -75 213t-211 76h-13l-82 -203q-12 -2 -36 -2q-60 0 -91.5 28.5t-31.5 79.5zM295 98q0 49 33.5 83t81.5 34q50 0 84 -34t34 -83 q0 -48 -34.5 -82t-83.5 -34q-48 0 -81.5 33.5t-33.5 82.5z" />
<glyph unicode="@" horiz-adv-x="1929" d="M156 504q0 409 297 680q122 110 286.5 171.5t341.5 61.5q323 0 513 -179t190 -474q0 -227 -115 -404q-75 -116 -181.5 -181.5t-207.5 -65.5q-74 0 -113 40t-39 117v19q-166 -172 -301 -172q-111 0 -182.5 89.5t-71.5 237.5q0 196 115 351q74 100 179.5 156.5t215.5 56.5 q95 0 201 -56l37 47h111q-23 -58 -56 -219l-80 -352q-16 -71 -16 -113q0 -40 24 -64t62 -24q41 0 89 27.5t91 79.5q68 80 106 195t38 243q0 158 -72 285t-205 199.5t-303 72.5q-335 0 -555 -205q-254 -236 -254 -596q0 -336 201 -538.5t530 -202.5q281 0 539 150l28 -70 q-323 -180 -622 -180q-352 0 -592 231q-229 218 -229 586zM748 469q0 -112 44 -169.5t126 -57.5q107 0 215 135l84 430l-84 115q-28 4 -46 4q-143 0 -241 -130t-98 -327z" />
<glyph unicode="A" horiz-adv-x="1308" d="M-16 0v84l118 25l480 1282h135l491 -1282l123 -25v-84h-465v84l127 10l15 29l-148 391h-483l-146 -391l21 -29l133 -10v-84h-401zM412 608h413l-211 568z" />
<glyph unicode="B" horiz-adv-x="1236" d="M68 0v84l116 10l35 29v1128l-35 29l-116 12v82h522q236 0 352.5 -82t116.5 -250q0 -233 -297 -313q182 -1 281.5 -88.5t99.5 -239.5q0 -194 -137.5 -297.5t-397.5 -103.5h-540zM403 102q73 -6 138 -6q208 0 304.5 68.5t96.5 222.5q0 139 -83.5 207t-254.5 68 q-71 0 -201 -13v-547zM403 752q27 -2 78 -2q193 0 284 68t91 216q0 250 -336 250q-14 0 -54 -2.5t-63 -3.5v-526z" />
<glyph unicode="C" horiz-adv-x="1294" d="M88 688q0 320 196 515.5t515 195.5q182 0 405 -70v-315h-114l-31 186l-27 37q-115 53 -229 53q-230 0 -367 -157.5t-137 -430.5q0 -291 142.5 -454.5t392.5 -163.5q86 0 178 27l32 32l46 228h114v-324q-207 -72 -413 -72q-204 0 -349 82q-165 94 -259.5 262t-94.5 369z " />
<glyph unicode="D" horiz-adv-x="1419" d="M68 0v84l116 10l35 29v1128l-35 29l-116 12v82h505q362 0 559 -181t197 -505q0 -367 -256 -561q-98 -73 -215 -100t-285 -27h-505zM403 94h162q281 0 419 148t138 446q0 299 -138 445.5t-419 146.5h-162v-1186z" />
<glyph unicode="E" horiz-adv-x="1179" d="M68 0v84l116 10l35 29v1128l-35 29l-116 12v82h981v-299h-115l-29 174l-28 31h-474v-518h336l29 29l20 149h97v-451h-97l-20 148l-29 31h-336v-574h549l29 33l35 207h106v-334h-1054z" />
<glyph unicode="F" horiz-adv-x="1099" d="M51 1292v82h983v-319h-112l-31 194l-27 31h-461v-539h336l29 29l20 150h97v-453h-97l-20 149l-29 31h-336v-524l35 -29l146 -10v-84h-516v84l116 10l35 29v1128l-35 29z" />
<glyph unicode="G" horiz-adv-x="1421" d="M88 688q0 325 198 518t537 193q186 0 394 -60v-325h-115l-31 186l-29 37q-115 53 -233 53q-236 0 -373 -156.5t-137 -431.5q0 -289 141.5 -453.5t384.5 -164.5q89 0 209 27v426l-35 28l-145 10v84h512v-84l-113 -10l-34 -28v-490q-248 -72 -424 -72q-208 0 -353 82 q-166 94 -260 262t-94 369z" />
<glyph unicode="H" horiz-adv-x="1511" d="M68 0v84l116 10l35 29v1128l-35 29l-116 12v82h497v-82l-127 -12l-35 -29v-483h705v483l-35 29l-127 12v82h498v-82l-117 -12l-35 -29v-1128l35 -29l117 -10v-84h-498v84l127 10l35 29v551h-705v-551l35 -29l127 -10v-84h-497z" />
<glyph unicode="I" horiz-adv-x="663" d="M72 0v84l131 10l35 29v1128l-35 29l-131 12v82h518v-82l-131 -12l-35 -29v-1128l35 -29l131 -10v-84h-518z" />
<glyph unicode="J" horiz-adv-x="909" d="M25 25v342h114l49 -258l29 -27q36 -8 72 -8q143 0 204.5 107t61.5 335v735l-35 29l-137 12v82h518v-82l-127 -12l-35 -29v-727q0 -281 -106.5 -415t-339.5 -134q-126 0 -268 50z" />
<glyph unicode="K" horiz-adv-x="1251" d="M68 0v84l116 10l35 29v1128l-35 29l-116 12v82h497v-82l-127 -12l-35 -29v-555h78l455 555l-12 29l-115 12v82h426v-82l-135 -18l-430 -512l465 -668l149 -10v-84h-338v61l-391 551h-152v-489l35 -29l127 -10v-84h-497z" />
<glyph unicode="L" horiz-adv-x="1064" d="M55 0v84l129 10l35 29v1128l-35 29l-129 12v82h500v-82l-117 -12l-35 -29v-1157h463l29 33l35 246h106v-373h-981z" />
<glyph unicode="M" horiz-adv-x="1773" d="M61 1292v82h435v-55l385 -1028l389 1020v63h438v-82l-129 -12l-25 -29v-1128l25 -29l129 -10v-84h-489v84l135 10l20 29v1155l-485 -1278h-88l-467 1257v-1118l37 -39l125 -16v-84h-433v84l123 16l37 39v1112l-26 29z" />
<glyph unicode="N" horiz-adv-x="1460" d="M53 1292v82h385v-51l699 -1049v963l-37 37l-123 18v82h430v-82l-123 -18l-37 -37v-1237h-135l-780 1163v-1024l37 -39l123 -16v-84h-433v84l125 16l37 39v1112l-37 29z" />
<glyph unicode="O" horiz-adv-x="1497" d="M88 688q0 338 209 541q186 180 453 180q264 0 450 -180q211 -205 211 -541q0 -228 -104 -405q-87 -149 -233.5 -232.5t-323.5 -83.5q-269 0 -451 176q-211 205 -211 545zM301 688q0 -282 123.5 -447t325.5 -165q200 0 323 165t123 447t-122.5 446t-323.5 164 q-203 0 -326 -162.5t-123 -447.5z" />
<glyph unicode="P" horiz-adv-x="1142" d="M51 1292v82h467q301 0 435 -94.5t134 -323.5q0 -199 -142.5 -319.5t-387.5 -120.5q-49 0 -154 10v-403l35 -29l146 -10v-84h-516v84l116 10l35 29v1128l-35 29zM403 625q108 -11 136 -11q175 0 266.5 89t91.5 258q0 164 -95 241.5t-292 77.5q-70 0 -107 -4v-651z" />
<glyph unicode="Q" horiz-adv-x="1497" d="M80 690q0 340 215 543q187 178 455 178q269 0 456 -178q213 -204 213 -543q0 -287 -153.5 -478.5t-417.5 -234.5q9 -243 291 -243q90 0 192 22v-84q-152 -32 -289 -32q-196 0 -292.5 83t-96.5 254q-264 40 -418.5 232t-154.5 481zM297 690q0 -281 125 -445.5t328 -164.5 q204 0 328 164t124 446q0 283 -123.5 446.5t-328.5 163.5t-329 -162.5t-124 -447.5z" />
<glyph unicode="R" horiz-adv-x="1323" d="M68 0v84l116 10l35 29v1128l-35 29l-116 12v82h522q250 0 371.5 -90t121.5 -278q0 -267 -331 -340q153 -41 211 -138q33 -54 58.5 -163t37.5 -140q33 -88 89 -116.5t177 -28.5h18v-78q-91 -18 -159 -18q-139 0 -207 59q-34 30 -59 75t-36 81t-27.5 98.5t-27.5 95.5 q-41 125 -111 173t-210 48q-29 0 -103 -4v-487l35 -29l117 -10v-84h-487zM403 709q63 -2 113 -2q187 0 275 66t88 216q0 157 -91 224t-286 67h-99v-571z" />
<glyph unicode="S" d="M123 41v360h121l24 -235l27 -35q89 -47 229 -47q146 0 228 68t82 178q0 46 -12.5 82t-35.5 62t-60 49t-81 43.5t-105 46.5q-31 13 -48 20q-75 32 -124 57.5t-95.5 58.5t-72 68.5t-40.5 82.5t-15 106q0 175 128.5 284t344.5 109q169 0 349 -58v-317h-107l-31 195l-30 34 q-76 43 -185 43q-130 0 -204 -67t-74 -180q0 -41 13 -73.5t33 -57t60 -49.5t78 -43t103 -46q15 -6 61 -24t68 -28t58.5 -28.5t65.5 -40t56 -47.5q90 -90 90 -225q0 -184 -143.5 -298t-386.5 -114q-218 0 -369 66z" />
<glyph unicode="T" horiz-adv-x="1222" d="M33 1059v315h1157v-315h-113l-28 190l-29 31h-315v-1157l36 -29l138 -10v-84h-535v84l137 10l37 29v1157h-315l-29 -31l-29 -190h-112z" />
<glyph unicode="U" horiz-adv-x="1421" d="M51 1292v82h502v-82l-127 -12l-37 -29v-741q0 -212 86.5 -310t280.5 -98q192 0 278 98.5t86 309.5v727l-39 37l-123 18v82h433v-82l-123 -18l-37 -37v-745q0 -129 -17.5 -212t-72.5 -149q-60 -72 -170.5 -114t-253.5 -42t-253.5 42t-170.5 114q-55 66 -72.5 148.5 t-17.5 212.5v759l-35 29z" />
<glyph unicode="V" horiz-adv-x="1265" d="M-47 1292v82h477v-82l-119 -12l-22 -29l385 -1032l370 1032l-20 29l-127 12v82h408v-82l-127 -24l-471 -1278h-142l-481 1278z" />
<glyph unicode="W" horiz-adv-x="1900" d="M0 1292v82h459v-82l-129 -16l-17 -29l265 -946l329 1073h144l335 -1095l248 960l-22 29l-137 24v82h423v-82l-137 -28l-325 -1264h-140l-346 1120l-340 -1120h-137l-344 1264z" />
<glyph unicode="X" horiz-adv-x="1228" d="M-18 0v84l135 27l411 575l-370 580l-135 26v82h493v-82l-123 -12l-16 -25l268 -421l291 413l-18 27l-119 18v82h418v-82l-132 -20l-374 -535l397 -628l139 -25v-84h-518v84l137 14l15 29l-289 465l-324 -459l13 -37l137 -12v-84h-436z" />
<glyph unicode="Y" horiz-adv-x="1200" d="M-27 1292v82h476v-82l-117 -12l-21 -23l314 -563l344 547l-19 29l-125 22v82h418v-82l-125 -26l-426 -682v-461l33 -29l139 -10v-84h-530v84l139 10l33 29v434l-408 715z" />
<glyph unicode="Z" horiz-adv-x="1200" d="M92 0v84l776 1192h-546l-39 -27l-33 -192h-113v317h957v-86l-779 -1188h619l22 27l37 244h111v-371h-1012z" />
<glyph unicode="[" horiz-adv-x="862" d="M285 -270v1720h485v-88h-324v-1546h324v-86h-485z" />
<glyph unicode="\" horiz-adv-x="985" d="M27 1374h125l876 -1564h-125z" />
<glyph unicode="]" horiz-adv-x="862" d="M94 -184h324v1546h-324v88h484v-1722h-484v88z" />
<glyph unicode="^" horiz-adv-x="2048" d="M412 897l522 565h178l520 -565h-92l-518 436l-520 -436h-90z" />
<glyph unicode="_" horiz-adv-x="1024" d="M0 -365h1024v-118h-1024v118z" />
<glyph unicode="`" horiz-adv-x="1024" d="M213 1507h203l198 -389h-102z" />
<glyph unicode="a" horiz-adv-x="1038" d="M86 248q0 46 12.5 83t33.5 66.5t61 56t82.5 46.5t111.5 41.5t134 38.5t163 41v65q0 125 -40 177t-148 52q-79 0 -156 -32v-172h-141q-36 0 -50 13.5t-14 49.5q0 97 113 164.5t301 67.5q161 0 233 -70t72 -225v-594l37 -33l108 -10v-74h-288l-27 119q-195 -133 -336 -133 q-120 0 -191 72.5t-71 189.5zM266 264q0 -76 44 -122t120 -46q95 0 254 92v361q-95 -26 -155.5 -46t-115.5 -45t-84 -52t-46 -62t-17 -80z" />
<glyph unicode="b" horiz-adv-x="1103" d="M16 1370v64l252 73h78v-573q150 72 281 72q181 0 293 -129t112 -338q0 -265 -150.5 -402t-443.5 -137h-262v1370h-160zM346 94q63 -2 113 -2q200 0 294.5 98.5t94.5 309.5q0 191 -84 294t-238 103q-68 0 -180 -33v-770z" />
<glyph unicode="c" horiz-adv-x="913" d="M76 494q0 228 134.5 370t350.5 142q145 0 226 -55t81 -146q0 -50 -31 -79.5t-83 -29.5q-44 0 -92 31v168q-50 29 -99 29q-134 0 -217.5 -112.5t-83.5 -303.5q0 -188 93.5 -295t254.5 -107q129 0 260 87v-107q-171 -100 -333 -100q-209 0 -335 140t-126 368z" />
<glyph unicode="d" horiz-adv-x="1157" d="M74 461q0 245 147 396t381 151q78 0 182 -23v385h-157v64l250 73h77v-1390l35 -33l98 -10v-74h-303v106q-154 -124 -315 -124q-170 0 -282.5 133.5t-112.5 345.5zM254 496q0 -178 84 -281.5t223 -103.5q108 0 223 71v703q-116 33 -180 33q-156 0 -253 -115.5t-97 -306.5z " />
<glyph unicode="e" horiz-adv-x="1005" d="M76 485q0 230 133 375.5t340 145.5q169 0 269 -108t100 -296q0 -28 -3 -63h-663v-23q0 -195 93.5 -306.5t250.5 -111.5q144 0 322 119v-113q-183 -122 -386 -122t-329.5 139t-126.5 364zM262 625h473v32q0 124 -55 190t-158 66q-101 0 -176 -80t-84 -208z" />
<glyph unicode="f" horiz-adv-x="657" d="M59 0v74l109 10l37 33v745h-131v66l131 30v23q0 251 115.5 397t300.5 146q70 0 114.5 -33.5t44.5 -83.5q0 -37 -22.5 -64.5t-61.5 -37.5l-186 122q-133 -62 -133 -319v-150h285v-96h-287v-745l35 -33l127 -10v-74h-478z" />
<glyph unicode="g" horiz-adv-x="1071" d="M82 -182q0 99 58.5 167t162.5 87q-20 48 -20 92q0 78 98 194q-118 26 -186 110t-68 200q0 151 108.5 244.5t288.5 93.5q116 0 232 -58h293v-96h-226q58 -88 58 -190q0 -139 -108 -229.5t-284 -90.5h-34q-23 -48 -23 -92q0 -3 4 -49l197 -31q186 -28 267 -84.5t81 -167.5 q0 -58 -32 -119t-91 -110q-167 -135 -405 -135q-176 0 -273.5 70t-97.5 194zM246 -139q0 -91 77 -152t201 -61q133 0 219 64t86 153q0 78 -45 108t-163 52l-199 36q-84 -26 -130 -79t-46 -121zM303 674q0 -115 55.5 -183.5t145.5 -68.5t145.5 68.5t55.5 183.5 q0 116 -55.5 184t-145.5 68q-91 0 -146 -67.5t-55 -184.5z" />
<glyph unicode="h" horiz-adv-x="1155" d="M39 1370v64l250 73h78v-624q111 62 190 92.5t141 30.5q134 0 204.5 -79.5t70.5 -232.5v-577l37 -33l108 -10v-74h-446v74l96 10l35 33v542q0 113 -47 162t-160 49q-98 0 -229 -67v-686l36 -33l97 -10v-74h-449v74l111 10l35 33v1253h-158z" />
<glyph unicode="i" horiz-adv-x="573" d="M72 0v74l108 10l35 33v741h-143v64l235 73h78v-878l37 -33l110 -10v-74h-460zM197 1331q0 51 34 85t84 34q49 0 84 -35t35 -84t-34.5 -83t-84.5 -34t-84 34t-34 83z" />
<glyph unicode="j" horiz-adv-x="544" d="M-160 -336q0 73 76 107l199 -121q56 19 82 96.5t26 220.5v891h-145v64l237 73h78v-823q0 -191 -20 -296t-97 -189q-124 -133 -294 -133q-67 0 -104.5 30t-37.5 80zM180 1331q0 51 34.5 85t84.5 34q49 0 84 -35t35 -84t-34.5 -83t-84.5 -34t-84.5 34t-34.5 83z" />
<glyph unicode="k" horiz-adv-x="1058" d="M39 1370v64l250 73h78v-985h39l313 350l-14 29l-93 8v76h389v-76l-131 -16l-280 -297l360 -508l131 -10v-78h-319v68l-277 397h-118v-348l36 -33l97 -10v-74h-449v74l111 10l35 33v1253h-158z" />
<glyph unicode="l" horiz-adv-x="577" d="M55 1370v64l250 73h78v-1390l37 -33l117 -10v-74h-480v74l121 10l35 33v1253h-158z" />
<glyph unicode="m" horiz-adv-x="1726" d="M61 0v74l111 10l35 33v741h-146v64l238 73h78v-112q208 123 328 123q153 0 225 -138q236 138 352 138q123 0 193.5 -81t70.5 -231v-577l35 -33l109 -10v-74h-447v74l96 10l37 33v542q0 108 -44.5 159.5t-139.5 51.5q-94 0 -231 -67v-686l36 -33l97 -10v-74h-437v74l99 10 l35 33v542q0 107 -44.5 159t-136.5 52q-99 0 -233 -67v-686l35 -33l98 -10v-74h-449z" />
<glyph unicode="n" horiz-adv-x="1163" d="M61 0v74l111 10l35 33v741h-146v64l238 73h78v-112q112 62 190 92.5t140 30.5q134 0 205 -79.5t71 -232.5v-577l35 -33l110 -10v-74h-448v74l98 10l35 33v542q0 113 -47 162t-160 49q-98 0 -229 -67v-686l35 -33l98 -10v-74h-449z" />
<glyph unicode="o" horiz-adv-x="1103" d="M76 494q0 227 133.5 369.5t341.5 142.5t342.5 -143t134.5 -369t-135 -369t-342 -143t-341 143t-134 369zM268 494q0 -195 79 -309.5t204 -114.5q127 0 206 114t79 310q0 195 -79 309.5t-206 114.5t-205 -114t-78 -310z" />
<glyph unicode="p" horiz-adv-x="1128" d="M47 -373l111 11l35 32v1188h-146v64l238 73h77v-112q163 123 302 123q171 0 282 -133.5t111 -346.5q0 -242 -138 -387t-366 -145q-77 0 -191 18v-342l35 -32l131 -11v-73h-481v73zM362 119q98 -33 175 -33q152 0 246 113t94 301q0 175 -82 276t-217 101q-95 0 -216 -70 v-688z" />
<glyph unicode="q" horiz-adv-x="1087" d="M76 471q0 247 154 392t417 145q127 0 293 -35q-2 -32 -4 -67.5t-3 -54.5t-1 -28v-1153l37 -35l108 -8v-73h-479v73l129 8l35 35v398q-157 -74 -283 -74q-181 0 -292 130t-111 347zM260 498q0 -189 82.5 -292.5t228.5 -103.5q64 0 191 31v764q-100 23 -156 23 q-160 0 -253 -112t-93 -310z" />
<glyph unicode="r" horiz-adv-x="782" d="M61 0v74l109 10l37 33v741h-146v64l238 73h78v-192q101 104 219 198q20 5 51 5q59 0 123 -27v-176h-65q-40 49 -105 49q-94 0 -223 -150v-585l35 -33l143 -10v-74h-494z" />
<glyph unicode="s" horiz-adv-x="819" d="M86 25v266h98l25 -174q85 -49 174 -49q88 0 140 46t52 119q0 39 -12 67.5t-43 53t-62 41t-91 43.5q-141 63 -203 123.5t-62 157.5q0 136 94.5 211.5t268.5 75.5q138 0 240 -45v-232h-101l-16 145q-80 44 -152 44q-81 0 -125.5 -39t-44.5 -109q0 -62 40 -101.5t134 -84.5 q15 -7 53 -25t58.5 -28t51 -28.5t54.5 -37.5q78 -62 78 -176q0 -143 -101 -225t-282 -82q-151 0 -266 43z" />
<glyph unicode="t" horiz-adv-x="684" d="M51 862v64l135 59l88 191h76v-218h312v-96h-312v-540q0 -124 33.5 -174t136.5 -50q62 0 142 17v-76q-139 -45 -269 -45q-123 0 -168 47t-45 160v661h-129z" />
<glyph unicode="u" horiz-adv-x="1165" d="M53 866v64l238 76h78v-678q0 -111 48 -164t150 -53q113 0 238 61v694h-146v64l238 76h78v-889l37 -33l96 -10v-74h-303v115q-189 -135 -332 -135q-133 0 -203.5 80t-70.5 233v573h-146z" />
<glyph unicode="v" horiz-adv-x="1011" d="M-10 909v76h444v-76l-108 -8l-25 -33l240 -669l262 669l-17 33l-110 8v76h362v-76l-120 -16l-359 -893h-115l-329 897z" />
<glyph unicode="w" horiz-adv-x="1579" d="M-4 909v76h444v-76l-108 -8l-25 -33l187 -665l274 782h125l242 -782l208 665l-16 33l-110 8v76h362v-76l-115 -16l-293 -893h-127l-247 776l-277 -776h-127l-272 897z" />
<glyph unicode="x" horiz-adv-x="1030" d="M25 0v76l116 16l295 395l-274 400l-125 22v76h440v-76l-94 -12l-10 -20l172 -269l186 262l-16 27l-99 12v76h369v-76l-115 -20l-270 -359l301 -438l123 -16v-76h-436v76l86 14l10 16l-190 306l-209 -297l10 -25l117 -14v-76h-387z" />
<glyph unicode="y" horiz-adv-x="1013" d="M-2 909v76h444v-76l-108 -8l-25 -33l246 -637l256 637l-16 33l-111 8v76h365v-76l-119 -16l-410 -995q-73 -177 -151 -260.5t-176 -83.5q-64 0 -103 31.5t-39 82.5q0 61 53 111l197 -78q93 100 166 307l-344 889z" />
<glyph unicode="z" horiz-adv-x="958" d="M92 0v102l547 789h-379l-29 -33l-22 -158h-96v285h739v-78l-567 -813h440l31 33l22 174h105v-301h-791z" />
<glyph unicode="{" horiz-adv-x="995" d="M133 549v90q18 -2 53 -2q137 0 191.5 60t54.5 204v209q0 175 93 252.5t304 77.5h27v-76q-152 -4 -206 -56.5t-54 -189.5v-166q0 -164 -58.5 -245t-209.5 -113q145 -32 206.5 -112t61.5 -234v-170q0 -55 3 -91.5t13 -69.5t27 -51.5t47 -33t70.5 -20.5t99.5 -7v-79h-51 q-111 0 -181.5 18t-114 63t-60.5 114t-17 179v174q0 153 -56 215t-196 62q-7 0 -23 -1t-24 -1z" />
<glyph unicode="|" horiz-adv-x="1024" d="M449 -483v2048h126v-2048h-126z" />
<glyph unicode="}" horiz-adv-x="995" d="M131 -195q59 1 99.5 7t70.5 20.5t47 33t27 51.5t13 69.5t3 91.5v170q0 154 61.5 234t206.5 112q-151 32 -209.5 113t-58.5 245v166q0 137 -54 189.5t-206 56.5v76h27q211 0 304 -77.5t93 -252.5v-209q0 -144 54.5 -204t191.5 -60q35 0 53 2v-90q-8 0 -24 1t-23 1 q-140 0 -196 -62t-56 -215v-174q0 -109 -17 -178t-61 -114.5t-114.5 -63.5t-182.5 -18h-49v79z" />
<glyph unicode="~" horiz-adv-x="1705" d="M178 461v133q210 145 387 145q50 0 104.5 -10.5t91 -22t95.5 -32.5q9 -3 40.5 -14.5t43 -15.5t38.5 -13t42.5 -12.5t38.5 -8t44 -6.5t42 -2q89 0 180.5 38.5t204.5 117.5v-131q-202 -144 -387 -144q-88 0 -191 35q-29 10 -99 35t-104.5 35.5t-87.5 21.5t-98 11 q-87 0 -178.5 -39.5t-206.5 -120.5z" />
<glyph unicode="&#xa1;" horiz-adv-x="692" d="M229 1282q0 48 34 82.5t83 34.5q48 0 82.5 -34t34.5 -83t-34.5 -83t-82.5 -34q-50 0 -83.5 33.5t-33.5 83.5zM233 129q0 40 7 119l57 782h98l58 -782q6 -86 6 -119q0 -147 -113 -147t-113 147z" />
<glyph unicode="&#xa2;" d="M131 504q0 209 114.5 348.5t313.5 171.5v207h94v-201h29q129 0 268 -47v-301h-92l-33 213q-66 41 -157 41h-15v-842q98 0 172 39l33 223h92v-311q-111 -43 -272 -43h-25v-203h-94v207q-197 26 -312.5 161t-115.5 337zM307 506q0 -157 68 -266.5t184 -141.5v832 q-121 -34 -186.5 -143.5t-65.5 -280.5z" />
<glyph unicode="&#xa3;" d="M76 0v117q137 38 182 133.5t45 302.5v72h-147v96h145q-4 86 -4 125q0 249 80 371q54 82 147 132t195 50q144 0 232.5 -60t88.5 -149q0 -47 -33.5 -79t-86.5 -32q-30 0 -66 8v193q-56 18 -106 18q-154 0 -215.5 -110.5t-61.5 -362.5q0 -67 2 -104h385v-96h-385v-27 q0 -318 -205 -446l4 -7q107 11 140 11h624v-156h-960z" />
<glyph unicode="&#xa4;" horiz-adv-x="1241" d="M86 424l207 205q-88 117 -88 256t88 256l-207 205l72 73l207 -207q120 91 256 91q140 0 260 -91l204 207l72 -73l-205 -205q86 -115 86 -256t-86 -256l205 -205l-72 -74l-204 207q-113 -88 -260 -88q-143 0 -256 88l-207 -207zM309 887q0 -131 92 -223.5t222 -92.5 t221.5 93t91.5 223q0 129 -91.5 221t-221.5 92t-222 -92t-92 -221z" />
<glyph unicode="&#xa5;" d="M-12 1292v82h434v-82l-107 -12l-18 -23l287 -561l313 545l-18 29l-113 22v82h379v-82l-113 -26l-225 -394h295v-86h-350l-121 -213h471v-86h-463v-364l35 -29l147 -10v-84h-528v84l141 10l39 29v364h-444v86h442l-109 213h-333v86h278l-203 400z" />
<glyph unicode="&#xa6;" horiz-adv-x="1024" d="M449 -350v758h126v-758h-126zM449 674v758h126v-758h-126z" />
<glyph unicode="&#xa7;" horiz-adv-x="1024" d="M129 588q0 110 60 188t182 131q-107 53 -157 117t-50 152q0 140 101.5 217t291.5 77q135 0 274 -47v-264h-92l-20 164q-110 61 -197 61q-90 0 -148.5 -50t-58.5 -124q0 -25 6 -45.5t22.5 -39.5t31 -32t47 -30.5t53.5 -28t67.5 -32.5t73.5 -35q142 -70 210.5 -152 t68.5 -188t-66.5 -195.5t-183.5 -136.5q109 -50 161 -116t52 -156q0 -134 -103.5 -222t-271.5 -88q-143 0 -301 64l-4 264h101l26 -184q99 -54 197 -54q94 0 152.5 48.5t58.5 121.5q0 20 -4.5 38.5t-10.5 33t-20.5 30.5t-25 27t-34.5 26t-38 24t-46.5 25t-50 24t-58 26.5 t-60.5 28.5q-116 55 -176 141t-60 191zM279 633q0 -99 68 -165.5t224 -135.5q172 114 172 250q0 92 -70.5 162t-215.5 124q-178 -79 -178 -235z" />
<glyph unicode="&#xa8;" horiz-adv-x="1024" d="M217 1311q0 44 31 74t74 30t72.5 -30t29.5 -74q0 -43 -29.5 -73t-72.5 -30t-74 30t-31 73zM598 1311q0 44 30.5 74t73.5 30t73 -30t30 -74q0 -43 -30 -73t-73 -30t-73.5 30t-30.5 73z" />
<glyph unicode="&#xa9;" horiz-adv-x="1843" d="M137 696q0 157 59 299t171 256q110 113 256.5 174.5t304.5 61.5q155 0 303 -62.5t258 -175.5q107 -109 166 -255.5t59 -305.5q0 -153 -62.5 -298.5t-178.5 -260.5q-226 -223 -558 -223q-151 0 -292.5 59.5t-253.5 171.5q-232 232 -232 559zM225 696q0 -290 207 -497 q210 -207 494 -207q290 0 491 207q100 103 154.5 231.5t54.5 265.5q0 140 -55 271.5t-152 228.5q-98 98 -226.5 151.5t-264.5 53.5q-140 0 -269 -53.5t-227 -153.5q-207 -213 -207 -498zM453 692q0 216 138.5 350t366.5 134q138 0 289 -48v-245h-88l-31 153q-74 45 -159 45 q-147 0 -242.5 -109.5t-95.5 -277.5t94 -279.5t233 -111.5q63 0 175 41l26 172h88v-256q-145 -51 -301 -51q-218 0 -355.5 134.5t-137.5 348.5z" />
<glyph unicode="&#xaa;" horiz-adv-x="778" d="M66 858q0 44 18.5 77.5t49 57t92 46.5t122.5 39t166 40v45q0 89 -30 125.5t-111 36.5q-53 0 -117 -22v-121h-106q-27 0 -37.5 9.5t-10.5 35.5q0 67 85 114.5t225 47.5q121 0 175 -49t54 -158v-416l27 -23l82 -8v-51h-218l-18 84q-146 -94 -252 -94q-91 0 -143.5 50.5 t-52.5 133.5zM201 868q0 -53 32.5 -84.5t90.5 -31.5q70 0 190 63v254q-175 -46 -244 -86.5t-69 -114.5z" />
<glyph unicode="&#xab;" horiz-adv-x="905" d="M80 410v163l336 273v-135l-240 -219l240 -222v-133zM485 410v163l334 273v-135l-239 -219l239 -222v-133z" />
<glyph unicode="&#xac;" horiz-adv-x="1705" d="M254 741v117h1198v-502h-115v385h-1083z" />
<glyph unicode="&#xad;" horiz-adv-x="653" d="M96 424v137h461v-137h-461z" />
<glyph unicode="&#xae;" horiz-adv-x="1843" d="M137 696q0 157 59 299t171 256q110 113 256.5 174.5t304.5 61.5q155 0 303 -62.5t258 -175.5q107 -109 166 -255.5t59 -305.5q0 -153 -62.5 -298.5t-178.5 -260.5q-226 -223 -558 -223q-151 0 -292.5 59.5t-253.5 171.5q-232 232 -232 559zM227 696q0 -292 205 -497 q210 -207 494 -207q290 0 491 207q100 103 153.5 231t53.5 266q0 141 -54 272t-151 228q-98 98 -227 152.5t-264 54.5q-139 0 -268.5 -54.5t-227.5 -154.5q-205 -211 -205 -498zM520 1077v70h432q167 0 249.5 -54.5t82.5 -168.5q0 -85 -63.5 -145.5t-184.5 -86.5 q95 -15 148 -80q21 -25 34 -55.5t23 -66t16 -50.5q26 -66 67.5 -89t131.5 -23v-74q-85 -16 -127 -16q-94 0 -162 59q-30 25 -48 61.5t-35.5 91t-28.5 80.5q-30 68 -74 92.5t-129 24.5q-36 0 -59 -2v-307l129 -14v-76h-392v74l109 14v721zM793 727q18 -2 51 -2 q129 0 195.5 43.5t66.5 126.5q0 85 -66.5 130.5t-193.5 45.5q-35 0 -53 -2v-342z" />
<glyph unicode="&#xaf;" horiz-adv-x="1024" d="M209 1245v123h616v-123h-616z" />
<glyph unicode="&#xb0;" horiz-adv-x="673" d="M55 1171q0 119 82.5 201t200.5 82q117 0 200 -83t83 -200q0 -116 -83 -199t-202 -83q-118 0 -199.5 81.5t-81.5 200.5zM135 1171q0 -85 59.5 -143.5t143.5 -58.5q85 0 143 59t58 143t-58.5 142.5t-142.5 58.5t-143.5 -58.5t-59.5 -142.5z" />
<glyph unicode="&#xb1;" horiz-adv-x="1705" d="M254 41v117h1198v-117h-1198zM254 719v117h541v344h118v-344h539v-117h-539v-344h-118v344h-541z" />
<glyph unicode="&#xb2;" horiz-adv-x="751" d="M57 549v78q105 78 163.5 123.5t125.5 104t99.5 100t54.5 90t22 96.5q0 87 -47.5 135.5t-132.5 48.5q-62 0 -121 -29v-131q-27 -18 -59 -18q-36 0 -56 18t-20 49q0 67 82.5 121t204.5 54q129 0 204.5 -64.5t75.5 -169.5q0 -57 -28.5 -112.5t-93 -120.5t-141 -126 t-200.5 -151h408l25 105h59v-201h-625z" />
<glyph unicode="&#xb3;" horiz-adv-x="751" d="M55 670q0 28 21.5 45.5t54.5 17.5q20 0 41 -6l41 -104q54 -29 115 -29q92 0 152.5 55t60.5 137q0 74 -51.5 114t-149.5 40q-45 0 -72 -4v72h29q102 0 156.5 41.5t54.5 115.5q0 73 -47 116.5t-125 43.5q-74 0 -129 -35v-116q-24 -15 -55 -15q-32 0 -53 18.5t-21 47.5 q0 64 82 114t205 50q121 0 193.5 -56.5t72.5 -150.5q0 -71 -52 -122t-151 -77q112 -7 175 -60.5t63 -138.5q0 -105 -95 -177t-247 -72q-115 0 -192 43t-77 92z" />
<glyph unicode="&#xb4;" horiz-adv-x="1024" d="M434 1118l199 389h203l-299 -389h-103z" />
<glyph unicode="&#xb5;" horiz-adv-x="1120" d="M-80 -330q0 35 23.5 122.5t68 252t78.5 326.5l109 514h147l-104 -492q-13 -67 -13 -112q0 -83 42.5 -129t117.5 -46q97 0 163 68t95 201l111 510h149l-114 -531q-21 -103 -21 -137q0 -49 26 -78.5t66 -29.5q73 0 117 69q19 29 32.5 70t23 62.5t24.5 21.5q26 0 26 -37 q0 -62 -40 -150q-73 -163 -230 -163q-67 0 -108 50.5t-41 139.5v23q-92 -218 -281 -218q-195 0 -223 216q-15 -79 -28 -161.5t-19.5 -138.5t-14 -111t-14.5 -88.5t-18.5 -61t-28 -39t-41.5 -11.5q-37 0 -58.5 23.5t-21.5 64.5z" />
<glyph unicode="&#xb6;" horiz-adv-x="991" d="M53 971q0 213 117 308t367 95h401v-74l-127 -20v-1442h-100v1452h-156v-715h-37q-235 0 -350 98t-115 298z" />
<glyph unicode="&#xb7;" horiz-adv-x="569" d="M154 686q0 55 38.5 93t92.5 38t91.5 -38t37.5 -93q0 -54 -37.5 -91.5t-91.5 -37.5t-92.5 37.5t-38.5 91.5z" />
<glyph unicode="&#xb8;" horiz-adv-x="1024" d="M369 -362q66 -17 120 -17q65 0 101.5 24t36.5 64q0 36 -27 56t-76 20q-15 0 -43 -4v219h76v-125q18 2 41 2q72 0 113 -39t41 -108q0 -86 -64.5 -136.5t-177.5 -50.5q-62 0 -141 21v74z" />
<glyph unicode="&#xb9;" horiz-adv-x="751" d="M129 1257v52l293 80h37v-764l16 -19l146 -6v-51h-453v53l156 6l16 23v659z" />
<glyph unicode="&#xba;" horiz-adv-x="827" d="M57 1030q0 159 100.5 259t256.5 100t257 -100.5t101 -258.5t-101.5 -258t-256.5 -100q-156 0 -256.5 99.5t-100.5 258.5zM201 1030q0 -137 59.5 -217t153.5 -80q95 0 154 80t59 217q0 136 -59 216.5t-154 80.5t-154 -80t-59 -217z" />
<glyph unicode="&#xbb;" horiz-adv-x="905" d="M94 137v133l240 222l-240 219v135l334 -273v-163zM498 137v133l239 222l-239 219v135l336 -273v-163z" />
<glyph unicode="&#xbc;" horiz-adv-x="1775" d="M121 1266v47l278 73h37v-710l17 -19l139 -4v-49h-432v49l147 6l17 21v616zM387 0l875 1374h124l-874 -1374h-125zM1094 223v74l440 479h74v-479h147v-74h-147v-266h-99v266h-415zM1190 297h319v354z" />
<glyph unicode="&#xbd;" horiz-adv-x="1775" d="M121 1266v47l278 73h37v-710l17 -19l139 -4v-49h-432v49l147 6l17 21v616zM387 0l875 1374h124l-874 -1374h-125zM1112 0v72q83 60 132.5 97t107.5 84t89.5 80t61 71.5t41.5 74t12 72.5q0 83 -45 128.5t-127 45.5q-57 0 -114 -29v-121q-27 -18 -58 -18q-34 0 -52.5 17.5 t-18.5 48.5q0 62 78 110.5t194 48.5q125 0 196.5 -58.5t71.5 -156.5q0 -43 -19.5 -86.5t-52.5 -85t-91.5 -92.5t-120.5 -98.5t-156 -114.5h387l25 98h57v-188h-598z" />
<glyph unicode="&#xbe;" horiz-adv-x="1777" d="M53 717q0 26 20.5 42.5t51.5 16.5q18 0 39 -6l41 -96q56 -29 108 -29q87 0 145 52.5t58 129.5q0 68 -49.5 106t-140.5 38q-32 0 -70 -6v67h29q96 0 147 39t51 109q0 68 -44.5 108.5t-119.5 40.5q-66 0 -122 -33v-108q-20 -14 -52 -14t-50.5 16.5t-18.5 44.5q0 59 77 105 t193 46q117 0 186.5 -52t69.5 -140q0 -66 -49 -113.5t-143 -70.5q106 -7 165.5 -57t59.5 -128q0 -99 -90 -166t-236 -67q-109 0 -182.5 39.5t-73.5 85.5zM387 0l875 1374h124l-874 -1374h-125zM1094 223v74l440 479h74v-479h147v-74h-147v-266h-99v266h-415zM1190 297h319 v354z" />
<glyph unicode="&#xbf;" horiz-adv-x="995" d="M123 352q0 143 92 249.5t283 189.5v239h106v-299q-295 -111 -295 -366q0 -137 74.5 -213t210.5 -76h14l80 203q12 2 37 2q60 0 92.5 -29t32.5 -80q0 -79 -84 -134.5t-217 -55.5q-195 0 -310.5 101.5t-115.5 268.5zM434 1282q0 48 34 82.5t83 34.5q48 0 82.5 -34t34.5 -83 t-34.5 -83t-82.5 -34q-49 0 -83 33.5t-34 83.5z" />
<glyph unicode="&#xc0;" horiz-adv-x="1308" d="M-16 0v84l118 25l480 1282h135l491 -1282l123 -25v-84h-465v84l127 10l15 29l-148 391h-483l-146 -391l21 -29l133 -10v-84h-401zM356 1911h203l199 -389h-103zM412 608h413l-211 568z" />
<glyph unicode="&#xc1;" horiz-adv-x="1308" d="M-16 0v84l118 25l480 1282h135l491 -1282l123 -25v-84h-465v84l127 10l15 29l-148 391h-483l-146 -391l21 -29l133 -10v-84h-401zM412 608h413l-211 568zM578 1522l198 389h203l-299 -389h-102z" />
<glyph unicode="&#xc2;" horiz-adv-x="1308" d="M-16 0v84l118 25l480 1282h135l491 -1282l123 -25v-84h-465v84l127 10l15 29l-148 391h-483l-146 -391l21 -29l133 -10v-84h-401zM365 1522l225 389h131l225 -389h-110l-181 288l-178 -288h-112zM412 608h413l-211 568z" />
<glyph unicode="&#xc3;" horiz-adv-x="1308" d="M-16 0v84l118 25l480 1282h135l491 -1282l123 -25v-84h-465v84l127 10l15 29l-148 391h-483l-146 -391l21 -29l133 -10v-84h-401zM342 1577v20q0 111 45 168.5t129 57.5q38 0 82.5 -16.5t77 -37t67 -37t56.5 -16.5q44 0 64 30.5t20 96.5v10h84q0 -5 1 -15t1 -15 q0 -98 -49 -157.5t-123 -59.5q-54 0 -114.5 26.5t-108.5 53t-72 26.5q-33 0 -53.5 -29.5t-20.5 -80.5q0 -4 1 -12.5t1 -12.5h-88zM412 608h413l-211 568z" />
<glyph unicode="&#xc4;" horiz-adv-x="1308" d="M-16 0v84l118 25l480 1282h135l491 -1282l123 -25v-84h-465v84l127 10l15 29l-148 391h-483l-146 -391l21 -29l133 -10v-84h-401zM360 1714q0 44 31 74.5t74 30.5t72.5 -30.5t29.5 -74.5q0 -43 -29.5 -72.5t-72.5 -29.5t-74 30t-31 72zM412 608h413l-211 568zM741 1714 q0 44 31 74.5t74 30.5t72.5 -30.5t29.5 -74.5q0 -43 -29.5 -72.5t-72.5 -29.5t-74 30t-31 72z" />
<glyph unicode="&#xc5;" horiz-adv-x="1308" d="M-16 0v84l118 25l480 1282h135l491 -1282l123 -25v-84h-465v84l127 10l15 29l-148 391h-483l-146 -391l21 -29l133 -10v-84h-401zM387 1733q0 101 69.5 170t170.5 69t171 -69t70 -170t-70 -171.5t-171 -70.5t-170.5 70.5t-69.5 171.5zM412 608h413l-211 568zM479 1731 q0 -61 44 -104.5t106 -43.5q63 0 105 43t42 105q0 63 -42 106t-105 43q-62 0 -106 -43t-44 -106z" />
<glyph unicode="&#xc6;" horiz-adv-x="1773" d="M-115 0v84l117 18l715 1149l-19 29l-118 12v82h1060v-299h-112l-29 174l-29 31h-421v-518h282l31 29l20 149h95v-451h-95l-20 148l-31 31h-282v-574h495l31 33l33 207h106v-334h-993v84l117 10l34 29v391h-477l-245 -391l10 -29l131 -10v-84h-406zM449 610h423v674z" />
<glyph unicode="&#xc7;" horiz-adv-x="1294" d="M88 688q0 320 196 515.5t515 195.5q182 0 405 -70v-315h-114l-31 186l-27 37q-115 53 -229 53q-230 0 -367 -157.5t-137 -430.5q0 -291 142.5 -454.5t392.5 -163.5q86 0 178 27l32 32l46 228h114v-324q-207 -72 -413 -72q-204 0 -349 82q-165 94 -259.5 262t-94.5 369z M612 -362q66 -17 121 -17q65 0 101 24t36 64q0 36 -26.5 56t-75.5 20q-15 0 -43 -4v219h76v-125q18 2 41 2q72 0 112.5 -39t40.5 -108q0 -86 -64 -136.5t-177 -50.5q-62 0 -142 21v74z" />
<glyph unicode="&#xc8;" horiz-adv-x="1179" d="M68 0v84l116 10l35 29v1128l-35 29l-116 12v82h981v-299h-115l-29 174l-28 31h-474v-518h336l29 29l20 149h97v-451h-97l-20 148l-29 31h-336v-574h549l29 33l35 207h106v-334h-1054zM291 1911h203l198 -389h-102z" />
<glyph unicode="&#xc9;" horiz-adv-x="1179" d="M68 0v84l116 10l35 29v1128l-35 29l-116 12v82h981v-299h-115l-29 174l-28 31h-474v-518h336l29 29l20 149h97v-451h-97l-20 148l-29 31h-336v-574h549l29 33l35 207h106v-334h-1054zM512 1522l199 389h202l-299 -389h-102z" />
<glyph unicode="&#xca;" horiz-adv-x="1179" d="M68 0v84l116 10l35 29v1128l-35 29l-116 12v82h981v-299h-115l-29 174l-28 31h-474v-518h336l29 29l20 149h97v-451h-97l-20 148l-29 31h-336v-574h549l29 33l35 207h106v-334h-1054zM299 1522l225 389h131l226 -389h-111l-180 288l-178 -288h-113z" />
<glyph unicode="&#xcb;" horiz-adv-x="1179" d="M68 0v84l116 10l35 29v1128l-35 29l-116 12v82h981v-299h-115l-29 174l-28 31h-474v-518h336l29 29l20 149h97v-451h-97l-20 148l-29 31h-336v-574h549l29 33l35 207h106v-334h-1054zM295 1714q0 44 30.5 74.5t73.5 30.5t73 -30.5t30 -74.5q0 -43 -30 -72.5t-73 -29.5 t-73.5 29.5t-30.5 72.5zM676 1714q0 44 30.5 74.5t73.5 30.5t73 -30.5t30 -74.5q0 -43 -30 -72.5t-73 -29.5t-73.5 29.5t-30.5 72.5z" />
<glyph unicode="&#xcc;" horiz-adv-x="663" d="M33 1911h203l198 -389h-102zM72 0v84l131 10l35 29v1128l-35 29l-131 12v82h518v-82l-131 -12l-35 -29v-1128l35 -29l131 -10v-84h-518z" />
<glyph unicode="&#xcd;" horiz-adv-x="663" d="M72 0v84l131 10l35 29v1128l-35 29l-131 12v82h518v-82l-131 -12l-35 -29v-1128l35 -29l131 -10v-84h-518zM254 1522l199 389h202l-299 -389h-102z" />
<glyph unicode="&#xce;" horiz-adv-x="663" d="M41 1522l225 389h131l226 -389h-111l-180 288l-178 -288h-113zM72 0v84l131 10l35 29v1128l-35 29l-131 12v82h518v-82l-131 -12l-35 -29v-1128l35 -29l131 -10v-84h-518z" />
<glyph unicode="&#xcf;" horiz-adv-x="663" d="M37 1714q0 44 30.5 74.5t73.5 30.5t73 -30.5t30 -74.5q0 -43 -30 -72.5t-73 -29.5t-73.5 29.5t-30.5 72.5zM72 0v84l131 10l35 29v1128l-35 29l-131 12v82h518v-82l-131 -12l-35 -29v-1128l35 -29l131 -10v-84h-518zM418 1714q0 44 30.5 74.5t73.5 30.5t73 -30.5 t30 -74.5q0 -43 -30 -72.5t-73 -29.5t-73.5 29.5t-30.5 72.5z" />
<glyph unicode="&#xd0;" horiz-adv-x="1419" d="M31 670v98h188v483l-35 29l-116 12v82h505q362 0 559 -181t197 -505q0 -367 -256 -561q-98 -73 -215 -100t-285 -27h-505v84l116 10l35 29v547h-188zM403 94h162q281 0 419 148t138 446q0 299 -138 445.5t-419 146.5h-162v-512h340v-98h-340v-576z" />
<glyph unicode="&#xd1;" horiz-adv-x="1460" d="M53 1292v82h385v-51l699 -1049v963l-37 37l-123 18v82h430v-82l-123 -18l-37 -37v-1237h-135l-780 1163v-1024l37 -39l123 -16v-84h-433v84l125 16l37 39v1112l-37 29zM418 1577v20q0 111 45 168.5t129 57.5q38 0 82 -16.5t76.5 -37t67 -37t56.5 -16.5q44 0 64 30.5 t20 96.5v10h84q0 -5 1 -15t1 -15q0 -98 -49 -157.5t-123 -59.5q-54 0 -114.5 26.5t-108 53t-71.5 26.5q-33 0 -53.5 -29.5t-20.5 -80.5q0 -4 1 -12.5t1 -12.5h-88z" />
<glyph unicode="&#xd2;" horiz-adv-x="1497" d="M88 688q0 338 209 541q186 180 453 180q264 0 450 -180q211 -205 211 -541q0 -228 -104 -405q-87 -149 -233.5 -232.5t-323.5 -83.5q-269 0 -451 176q-211 205 -211 545zM301 688q0 -282 123.5 -447t325.5 -165q200 0 323 165t123 447t-122.5 446t-323.5 164 q-203 0 -326 -162.5t-123 -447.5zM451 1911h202l199 -389h-102z" />
<glyph unicode="&#xd3;" horiz-adv-x="1497" d="M88 688q0 338 209 541q186 180 453 180q264 0 450 -180q211 -205 211 -541q0 -228 -104 -405q-87 -149 -233.5 -232.5t-323.5 -83.5q-269 0 -451 176q-211 205 -211 545zM301 688q0 -282 123.5 -447t325.5 -165q200 0 323 165t123 447t-122.5 446t-323.5 164 q-203 0 -326 -162.5t-123 -447.5zM672 1522l198 389h203l-299 -389h-102z" />
<glyph unicode="&#xd4;" horiz-adv-x="1497" d="M88 688q0 338 209 541q186 180 453 180q264 0 450 -180q211 -205 211 -541q0 -228 -104 -405q-87 -149 -233.5 -232.5t-323.5 -83.5q-269 0 -451 176q-211 205 -211 545zM301 688q0 -282 123.5 -447t325.5 -165q200 0 323 165t123 447t-122.5 446t-323.5 164 q-203 0 -326 -162.5t-123 -447.5zM459 1522l225 389h131l225 -389h-110l-180 288l-179 -288h-112z" />
<glyph unicode="&#xd5;" horiz-adv-x="1497" d="M88 688q0 338 209 541q186 180 453 180q264 0 450 -180q211 -205 211 -541q0 -228 -104 -405q-87 -149 -233.5 -232.5t-323.5 -83.5q-269 0 -451 176q-211 205 -211 545zM301 688q0 -282 123.5 -447t325.5 -165q200 0 323 165t123 447t-122.5 446t-323.5 164 q-203 0 -326 -162.5t-123 -447.5zM436 1577v20q0 111 45 168.5t129 57.5q38 0 82.5 -16.5t77 -37t67 -37t56.5 -16.5q44 0 64 30.5t20 96.5v10h84q0 -5 1 -15t1 -15q0 -98 -49 -157.5t-123 -59.5q-54 0 -114.5 26.5t-108.5 53t-72 26.5q-33 0 -53.5 -29.5t-20.5 -80.5 q0 -4 1 -12.5t1 -12.5h-88z" />
<glyph unicode="&#xd6;" horiz-adv-x="1497" d="M88 688q0 338 209 541q186 180 453 180q264 0 450 -180q211 -205 211 -541q0 -228 -104 -405q-87 -149 -233.5 -232.5t-323.5 -83.5q-269 0 -451 176q-211 205 -211 545zM301 688q0 -282 123.5 -447t325.5 -165q200 0 323 165t123 447t-122.5 446t-323.5 164 q-203 0 -326 -162.5t-123 -447.5zM455 1714q0 44 30.5 74.5t73.5 30.5t73 -30.5t30 -74.5q0 -43 -30 -72.5t-73 -29.5t-73.5 29.5t-30.5 72.5zM836 1714q0 44 30.5 74.5t73.5 30.5t72.5 -30.5t29.5 -74.5q0 -43 -29.5 -72.5t-72.5 -29.5t-73.5 29.5t-30.5 72.5z" />
<glyph unicode="&#xd7;" horiz-adv-x="1705" d="M301 135l475 475l-475 477l80 82l477 -477l475 477l82 -82l-475 -477l475 -475l-82 -82l-475 475l-477 -475z" />
<glyph unicode="&#xd8;" horiz-adv-x="1497" d="M88 688q0 338 211 543q181 178 451 178q155 0 315 -74l119 197l84 -49l-125 -205q268 -214 268 -590q0 -338 -213 -545q-182 -176 -448 -176q-174 0 -340 90l-127 -215l-80 56l129 217q-244 209 -244 573zM293 688q0 -265 119 -438l583 969q-106 79 -245 79 q-206 0 -331.5 -163.5t-125.5 -446.5zM481 172q119 -94 269 -94q206 0 331 163.5t125 446.5q0 278 -137 463z" />
<glyph unicode="&#xd9;" horiz-adv-x="1421" d="M51 1292v82h502v-82l-127 -12l-37 -29v-741q0 -212 86.5 -310t280.5 -98q192 0 278 98.5t86 309.5v727l-39 37l-123 18v82h433v-82l-123 -18l-37 -37v-745q0 -129 -17.5 -212t-72.5 -149q-60 -72 -170.5 -114t-253.5 -42t-253.5 42t-170.5 114q-55 66 -72.5 148.5 t-17.5 212.5v759l-35 29zM412 1911h202l199 -389h-102z" />
<glyph unicode="&#xda;" horiz-adv-x="1421" d="M51 1292v82h502v-82l-127 -12l-37 -29v-741q0 -212 86.5 -310t280.5 -98q192 0 278 98.5t86 309.5v727l-39 37l-123 18v82h433v-82l-123 -18l-37 -37v-745q0 -129 -17.5 -212t-72.5 -149q-60 -72 -170.5 -114t-253.5 -42t-253.5 42t-170.5 114q-55 66 -72.5 148.5 t-17.5 212.5v759l-35 29zM633 1522l198 389h203l-299 -389h-102z" />
<glyph unicode="&#xdb;" horiz-adv-x="1421" d="M51 1292v82h502v-82l-127 -12l-37 -29v-741q0 -212 86.5 -310t280.5 -98q192 0 278 98.5t86 309.5v727l-39 37l-123 18v82h433v-82l-123 -18l-37 -37v-745q0 -129 -17.5 -212t-72.5 -149q-60 -72 -170.5 -114t-253.5 -42t-253.5 42t-170.5 114q-55 66 -72.5 148.5 t-17.5 212.5v759l-35 29zM420 1522l225 389h131l225 -389h-110l-180 288l-179 -288h-112z" />
<glyph unicode="&#xdc;" horiz-adv-x="1421" d="M51 1292v82h502v-82l-127 -12l-37 -29v-741q0 -212 86.5 -310t280.5 -98q192 0 278 98.5t86 309.5v727l-39 37l-123 18v82h433v-82l-123 -18l-37 -37v-745q0 -129 -17.5 -212t-72.5 -149q-60 -72 -170.5 -114t-253.5 -42t-253.5 42t-170.5 114q-55 66 -72.5 148.5 t-17.5 212.5v759l-35 29zM416 1714q0 44 30.5 74.5t73.5 30.5t73 -30.5t30 -74.5q0 -43 -30 -72.5t-73 -29.5t-73.5 29.5t-30.5 72.5zM797 1714q0 44 30.5 74.5t73.5 30.5t73 -30.5t30 -74.5q0 -43 -30 -72.5t-73 -29.5t-73.5 29.5t-30.5 72.5z" />
<glyph unicode="&#xdd;" horiz-adv-x="1200" d="M-27 1292v82h476v-82l-117 -12l-21 -23l314 -563l344 547l-19 29l-125 22v82h418v-82l-125 -26l-426 -682v-461l33 -29l139 -10v-84h-530v84l139 10l33 29v434l-408 715zM522 1522l199 389h203l-299 -389h-103z" />
<glyph unicode="&#xde;" horiz-adv-x="1142" d="M72 0v84l118 10l33 29v1128l-33 29l-118 12v82h497v-82l-127 -12l-32 -29v-135h112q301 0 435.5 -92.5t134.5 -316.5q0 -195 -142.5 -314t-388.5 -119q-35 0 -151 11v-162l32 -29l127 -10v-84h-497zM410 381q81 -8 135 -8q175 0 266.5 86t91.5 252q0 161 -94.5 237 t-290.5 76q-69 0 -108 -4v-639z" />
<glyph unicode="&#xdf;" horiz-adv-x="1247" d="M39 0v72l119 14l22 31v803q0 272 140 435t362 163q164 0 254 -88.5t90 -249.5q0 -108 -37 -226q-36 4 -49 4q-87 0 -135.5 -43t-48.5 -116q0 -24 4.5 -43.5t18 -37t24 -29.5t37 -28.5t42 -25.5t53.5 -29t58 -31q101 -56 149 -122.5t48 -151.5q0 -133 -95.5 -224 t-246.5 -91q-78 0 -236 41v270h103l20 -178q55 -43 125 -43q80 0 128 49.5t48 122.5q0 24 -5 44.5t-10.5 35.5t-22 32t-26 26t-37 26.5t-40 24.5t-49.5 28q-48 27 -74.5 42.5t-60.5 38.5t-51.5 42t-34.5 44.5t-24 54t-7 63.5q0 97 67.5 173.5t182.5 102.5q20 92 20 143 q0 113 -59.5 183.5t-153.5 70.5q-155 0 -243 -166q-31 -60 -41.5 -147t-10.5 -227v-764l17 -37l135 -10v-72h-469z" />
<glyph unicode="&#xe0;" horiz-adv-x="1038" d="M86 248q0 46 12.5 83t33.5 66.5t61 56t82.5 46.5t111.5 41.5t134 38.5t163 41v65q0 125 -40 177t-148 52q-79 0 -156 -32v-172h-141q-36 0 -50 13.5t-14 49.5q0 97 113 164.5t301 67.5q161 0 233 -70t72 -225v-594l37 -33l108 -10v-74h-288l-27 119q-195 -133 -336 -133 q-120 0 -191 72.5t-71 189.5zM221 1507h203l199 -389h-103zM266 264q0 -76 44 -122t120 -46q95 0 254 92v361q-95 -26 -155.5 -46t-115.5 -45t-84 -52t-46 -62t-17 -80z" />
<glyph unicode="&#xe1;" horiz-adv-x="1038" d="M86 248q0 46 12.5 83t33.5 66.5t61 56t82.5 46.5t111.5 41.5t134 38.5t163 41v65q0 125 -40 177t-148 52q-79 0 -156 -32v-172h-141q-36 0 -50 13.5t-14 49.5q0 97 113 164.5t301 67.5q161 0 233 -70t72 -225v-594l37 -33l108 -10v-74h-288l-27 119q-195 -133 -336 -133 q-120 0 -191 72.5t-71 189.5zM266 264q0 -76 44 -122t120 -46q95 0 254 92v361q-95 -26 -155.5 -46t-115.5 -45t-84 -52t-46 -62t-17 -80zM442 1118l199 389h203l-299 -389h-103z" />
<glyph unicode="&#xe2;" horiz-adv-x="1038" d="M86 248q0 46 12.5 83t33.5 66.5t61 56t82.5 46.5t111.5 41.5t134 38.5t163 41v65q0 125 -40 177t-148 52q-79 0 -156 -32v-172h-141q-36 0 -50 13.5t-14 49.5q0 97 113 164.5t301 67.5q161 0 233 -70t72 -225v-594l37 -33l108 -10v-74h-288l-27 119q-195 -133 -336 -133 q-120 0 -191 72.5t-71 189.5zM229 1118l226 389h131l225 -389h-111l-180 289l-178 -289h-113zM266 264q0 -76 44 -122t120 -46q95 0 254 92v361q-95 -26 -155.5 -46t-115.5 -45t-84 -52t-46 -62t-17 -80z" />
<glyph unicode="&#xe3;" horiz-adv-x="1038" d="M86 248q0 46 12.5 83t33.5 66.5t61 56t82.5 46.5t111.5 41.5t134 38.5t163 41v65q0 125 -40 177t-148 52q-79 0 -156 -32v-172h-141q-36 0 -50 13.5t-14 49.5q0 97 113 164.5t301 67.5q161 0 233 -70t72 -225v-594l37 -33l108 -10v-74h-288l-27 119q-195 -133 -336 -133 q-120 0 -191 72.5t-71 189.5zM207 1174v20q0 111 45 168t129 57q48 0 105 -26.5t104.5 -53t73.5 -26.5q44 0 64 30.5t20 96.5v10h83q0 -5 1.5 -15.5t1.5 -15.5q0 -98 -49 -157.5t-123 -59.5q-54 0 -114.5 27t-108.5 53.5t-72 26.5q-33 0 -53.5 -29.5t-20.5 -81.5q0 -4 1 -12 t1 -12h-88zM266 264q0 -76 44 -122t120 -46q95 0 254 92v361q-95 -26 -155.5 -46t-115.5 -45t-84 -52t-46 -62t-17 -80z" />
<glyph unicode="&#xe4;" horiz-adv-x="1038" d="M86 248q0 46 12.5 83t33.5 66.5t61 56t82.5 46.5t111.5 41.5t134 38.5t163 41v65q0 125 -40 177t-148 52q-79 0 -156 -32v-172h-141q-36 0 -50 13.5t-14 49.5q0 97 113 164.5t301 67.5q161 0 233 -70t72 -225v-594l37 -33l108 -10v-74h-288l-27 119q-195 -133 -336 -133 q-120 0 -191 72.5t-71 189.5zM225 1311q0 44 31 74t74 30t72.5 -30t29.5 -74q0 -43 -29.5 -73t-72.5 -30t-74 30t-31 73zM266 264q0 -76 44 -122t120 -46q95 0 254 92v361q-95 -26 -155.5 -46t-115.5 -45t-84 -52t-46 -62t-17 -80zM606 1311q0 44 31 74t74 30t72.5 -30 t29.5 -74q0 -43 -29.5 -73t-72.5 -30t-74 30t-31 73z" />
<glyph unicode="&#xe5;" horiz-adv-x="1038" d="M86 248q0 46 12.5 83t33.5 66.5t61 56t82.5 46.5t111.5 41.5t134 38.5t163 41v65q0 125 -40 177t-148 52q-79 0 -156 -32v-172h-141q-36 0 -50 13.5t-14 49.5q0 97 113 164.5t301 67.5q161 0 234 -70t73 -225v-594l35 -33l108 -10v-74h-288l-27 119q-195 -133 -336 -133 q-120 0 -191 72.5t-71 189.5zM266 264q0 -76 44 -122t120 -46q95 0 254 92v361q-95 -26 -155.5 -46t-115.5 -45t-84 -52t-46 -62t-17 -80zM272 1360q0 101 69.5 170t170.5 69q102 0 172 -69t70 -170t-70.5 -171.5t-171.5 -70.5t-170.5 70.5t-69.5 171.5zM365 1358 q0 -62 43 -105t104 -43q63 0 107.5 43.5t44.5 104.5q0 63 -44.5 106t-107.5 43q-62 0 -104.5 -43t-42.5 -106z" />
<glyph unicode="&#xe6;" horiz-adv-x="1484" d="M88 240q0 42 7.5 76t27 63.5t42 52.5t62.5 45t78.5 38.5t101 35.5t117.5 34t140 36v65q0 124 -39.5 176.5t-143.5 52.5q-76 0 -141 -32v-172h-143q-34 0 -48 13.5t-14 49.5q0 99 108 165.5t289 66.5q100 0 162 -29t97 -94q111 123 270 123q160 0 248 -105.5t88 -300.5 q0 -47 -2 -72h-572v-284q130 -133 307 -133q77 0 140 24.5t127 81.5v-113q-155 -122 -332 -122q-214 0 -363 149q-195 -145 -362 -145q-115 0 -183.5 70.5t-68.5 183.5zM260 264q0 -76 43.5 -122t116.5 -46q91 0 244 92v361q-92 -26 -150.5 -46t-111.5 -45t-81.5 -52 t-44.5 -62t-16 -80zM823 608h389q0 8 1 24t1 23q0 128 -46.5 194t-137.5 66q-97 0 -150.5 -78.5t-56.5 -228.5z" />
<glyph unicode="&#xe7;" horiz-adv-x="913" d="M76 494q0 228 134.5 370t350.5 142q145 0 226 -55t81 -146q0 -50 -31 -79.5t-83 -29.5q-44 0 -92 31v168q-50 29 -99 29q-134 0 -217.5 -112.5t-83.5 -303.5q0 -188 93.5 -295t254.5 -107q129 0 260 87v-107q-171 -100 -333 -100q-209 0 -335 140t-126 368zM358 -362 q66 -17 121 -17q65 0 101 24t36 64q0 36 -26.5 56t-75.5 20q-15 0 -43 -4v219h76v-125q18 2 41 2q72 0 112.5 -39t40.5 -108q0 -86 -64 -136.5t-177 -50.5q-62 0 -142 21v74z" />
<glyph unicode="&#xe8;" horiz-adv-x="1005" d="M76 485q0 230 133 375.5t340 145.5q169 0 269 -108t100 -296q0 -28 -3 -63h-663v-23q0 -195 93.5 -306.5t250.5 -111.5q144 0 322 119v-113q-183 -122 -386 -122t-329.5 139t-126.5 364zM227 1507h203l199 -389h-103zM262 625h473v32q0 124 -55 190t-158 66 q-101 0 -176 -80t-84 -208z" />
<glyph unicode="&#xe9;" horiz-adv-x="1005" d="M76 485q0 230 133 375.5t340 145.5q169 0 269 -108t100 -296q0 -28 -3 -63h-663v-23q0 -195 93.5 -306.5t250.5 -111.5q144 0 322 119v-113q-183 -122 -386 -122t-329.5 139t-126.5 364zM262 625h473v32q0 124 -55 190t-158 66q-101 0 -176 -80t-84 -208zM449 1118 l198 389h203l-299 -389h-102z" />
<glyph unicode="&#xea;" horiz-adv-x="1005" d="M76 485q0 230 133 375.5t340 145.5q169 0 269 -108t100 -296q0 -28 -3 -63h-663v-23q0 -195 93.5 -306.5t250.5 -111.5q144 0 322 119v-113q-183 -122 -386 -122t-329.5 139t-126.5 364zM236 1118l225 389h131l225 -389h-110l-181 289l-178 -289h-112zM262 625h473v32 q0 124 -55 190t-158 66q-101 0 -176 -80t-84 -208z" />
<glyph unicode="&#xeb;" horiz-adv-x="1005" d="M76 485q0 230 133 375.5t340 145.5q169 0 269 -108t100 -296q0 -28 -3 -63h-663v-23q0 -195 93.5 -306.5t250.5 -111.5q144 0 322 119v-113q-183 -122 -386 -122t-329.5 139t-126.5 364zM231 1311q0 44 31 74t74 30t72.5 -30t29.5 -74q0 -43 -29.5 -73t-72.5 -30t-74 30 t-31 73zM262 625h473v32q0 124 -55 190t-158 66q-101 0 -176 -80t-84 -208zM612 1311q0 44 31 74t74 30t72.5 -30t29.5 -74q0 -43 -29.5 -73t-72.5 -30t-74 30t-31 73z" />
<glyph unicode="&#xec;" horiz-adv-x="573" d="M-12 1507h202l199 -389h-102zM72 0v74l108 10l35 33v741h-143v64l235 73h80v-878l35 -33l110 -10v-74h-460z" />
<glyph unicode="&#xed;" horiz-adv-x="573" d="M72 0v74l108 10l35 33v741h-143v64l235 73h80v-878l35 -33l110 -10v-74h-460zM209 1118l199 389h202l-299 -389h-102z" />
<glyph unicode="&#xee;" horiz-adv-x="573" d="M-4 1118l225 389h131l226 -389h-111l-180 289l-178 -289h-113zM72 0v74l108 10l35 33v741h-143v64l235 73h80v-878l35 -33l110 -10v-74h-460z" />
<glyph unicode="&#xef;" horiz-adv-x="573" d="M-8 1311q0 44 30.5 74t73.5 30t73 -30t30 -74q0 -43 -30 -73t-73 -30t-73.5 30t-30.5 73zM72 0v74l108 10l35 33v741h-143v64l235 73h80v-878l35 -33l110 -10v-74h-460zM373 1311q0 44 30.5 74t73.5 30t73 -30t30 -74q0 -43 -30 -73t-73 -30t-73.5 30t-30.5 73z" />
<glyph unicode="&#xf0;" horiz-adv-x="1081" d="M68 500q0 220 140 357.5t363 137.5q47 0 129 -14q-71 114 -163 227l-263 -157l-45 77l240 146l-74 84l-166 14v60l232 69l145 -149l225 135l46 -80l-211 -127q174 -201 259 -378.5t85 -354.5q0 -252 -135 -409.5t-338 -157.5q-207 0 -338 146t-131 374zM258 496 q0 -199 81.5 -314.5t207.5 -115.5q129 0 209 118.5t80 329.5q0 232 -84 369q-99 26 -162 26q-155 0 -243.5 -107.5t-88.5 -305.5z" />
<glyph unicode="&#xf1;" horiz-adv-x="1163" d="M61 0v74l111 10l35 33v741h-146v64l238 73h78v-112q112 62 190 92.5t140 30.5q134 0 205 -79.5t71 -232.5v-577l35 -33l110 -10v-74h-448v74l98 10l35 33v542q0 113 -47 162t-160 49q-98 0 -229 -67v-686l35 -33l98 -10v-74h-449zM246 1174v20q0 111 45 168t129 57 q48 0 104.5 -26.5t104 -53t73.5 -26.5q44 0 64 30.5t20 96.5v10h84q0 -5 1 -15.5t1 -15.5q0 -98 -49 -157.5t-123 -59.5q-54 0 -114.5 27t-108 53.5t-71.5 26.5q-33 0 -53.5 -29.5t-20.5 -81.5q0 -4 1 -12t1 -12h-88z" />
<glyph unicode="&#xf2;" horiz-adv-x="1103" d="M76 494q0 227 133.5 369.5t341.5 142.5t342.5 -143t134.5 -369t-135 -369t-342 -143t-341 143t-134 369zM254 1507h203l198 -389h-102zM268 494q0 -195 79 -309.5t204 -114.5q127 0 206 114t79 310q0 195 -79 309.5t-206 114.5t-205 -114t-78 -310z" />
<glyph unicode="&#xf3;" horiz-adv-x="1103" d="M76 494q0 227 133.5 369.5t341.5 142.5t342.5 -143t134.5 -369t-135 -369t-342 -143t-341 143t-134 369zM268 494q0 -195 79 -309.5t204 -114.5q127 0 206 114t79 310q0 195 -79 309.5t-206 114.5t-205 -114t-78 -310zM475 1118l199 389h203l-299 -389h-103z" />
<glyph unicode="&#xf4;" horiz-adv-x="1103" d="M76 494q0 227 133.5 369.5t341.5 142.5t342.5 -143t134.5 -369t-135 -369t-342 -143t-341 143t-134 369zM262 1118l225 389h131l226 -389h-111l-180 289l-178 -289h-113zM268 494q0 -195 79 -309.5t204 -114.5q127 0 206 114t79 310q0 195 -79 309.5t-206 114.5 t-205 -114t-78 -310z" />
<glyph unicode="&#xf5;" horiz-adv-x="1103" d="M76 494q0 227 133.5 369.5t341.5 142.5t342.5 -143t134.5 -369t-135 -369t-342 -143t-341 143t-134 369zM240 1174v20q0 111 45 168t129 57q48 0 104.5 -26.5t104 -53t73.5 -26.5q44 0 64 30.5t20 96.5v10h84q0 -5 1 -15.5t1 -15.5q0 -98 -49 -157.5t-123 -59.5 q-54 0 -114.5 27t-108.5 53.5t-72 26.5q-33 0 -53 -29.5t-20 -81.5q0 -4 1 -12t1 -12h-88zM268 494q0 -195 79 -309.5t204 -114.5q127 0 206 114t79 310q0 195 -79 309.5t-206 114.5t-205 -114t-78 -310z" />
<glyph unicode="&#xf6;" horiz-adv-x="1103" d="M76 494q0 227 133.5 369.5t341.5 142.5t342.5 -143t134.5 -369t-135 -369t-342 -143t-341 143t-134 369zM258 1311q0 44 30.5 74t73.5 30t73 -30t30 -74q0 -43 -30 -73t-73 -30t-73.5 30t-30.5 73zM268 494q0 -195 79 -309.5t204 -114.5q127 0 206 114t79 310 q0 195 -79 309.5t-206 114.5t-205 -114t-78 -310zM639 1311q0 44 30.5 74t73.5 30t73 -30t30 -74q0 -43 -30 -73t-73 -30t-73.5 30t-30.5 73z" />
<glyph unicode="&#xf7;" horiz-adv-x="1705" d="M254 553v117h1198v-117h-1198zM739 250q0 49 34 82t81 33q46 0 80.5 -34t34.5 -81t-33 -81t-82 -34q-47 0 -81 34t-34 81zM739 971q0 47 34.5 80.5t80.5 33.5q47 0 81 -33.5t34 -80.5t-33 -81t-82 -34t-82 33.5t-33 81.5z" />
<glyph unicode="&#xf8;" horiz-adv-x="1103" d="M76 494q0 227 134 369.5t341 142.5q118 0 209 -45l106 186l70 -39l-107 -190q199 -149 199 -424q0 -226 -135 -369t-342 -143q-127 0 -232 57l-118 -203l-66 41l119 209q-178 147 -178 408zM264 494q0 -154 62 -281l379 651q-66 51 -154 51q-128 0 -207.5 -112.5 t-79.5 -308.5zM381 141q68 -71 170 -71q130 0 210.5 114t80.5 310q0 181 -82 309z" />
<glyph unicode="&#xf9;" horiz-adv-x="1165" d="M53 866v64l238 76h78v-678q0 -111 48 -164t150 -53q113 0 238 61v694h-146v64l238 76h78v-889l37 -33l96 -10v-74h-303v115q-189 -135 -332 -135q-133 0 -203.5 80t-70.5 233v573h-146zM285 1507h202l199 -389h-102z" />
<glyph unicode="&#xfa;" horiz-adv-x="1165" d="M53 866v64l238 76h78v-678q0 -111 48 -164t150 -53q113 0 238 61v694h-146v64l238 76h78v-889l37 -33l96 -10v-74h-303v115q-189 -135 -332 -135q-133 0 -203.5 80t-70.5 233v573h-146zM506 1118l199 389h202l-299 -389h-102z" />
<glyph unicode="&#xfb;" horiz-adv-x="1165" d="M53 866v64l238 76h78v-678q0 -111 48 -164t150 -53q113 0 238 61v694h-146v64l238 76h78v-889l37 -33l96 -10v-74h-303v115q-189 -135 -332 -135q-133 0 -203.5 80t-70.5 233v573h-146zM293 1118l225 389h131l225 -389h-110l-180 289l-178 -289h-113z" />
<glyph unicode="&#xfc;" horiz-adv-x="1165" d="M53 866v64l238 76h78v-678q0 -111 48 -164t150 -53q113 0 238 61v694h-146v64l238 76h78v-889l37 -33l96 -10v-74h-303v115q-189 -135 -332 -135q-133 0 -203.5 80t-70.5 233v573h-146zM289 1311q0 44 30.5 74t73.5 30t73 -30t30 -74q0 -43 -30 -73t-73 -30t-73.5 30 t-30.5 73zM670 1311q0 44 30.5 74t73.5 30t73 -30t30 -74q0 -43 -30 -73t-73 -30t-73.5 30t-30.5 73z" />
<glyph unicode="&#xfd;" horiz-adv-x="1013" d="M-2 909v76h444v-76l-108 -8l-25 -33l246 -637l256 637l-16 33l-111 8v76h365v-76l-119 -16l-410 -995q-73 -177 -151 -260.5t-176 -83.5q-64 0 -103 31.5t-39 82.5q0 61 53 111l197 -78q93 100 166 307l-344 889zM430 1118l199 389h202l-299 -389h-102z" />
<glyph unicode="&#xfe;" horiz-adv-x="1128" d="M41 1370v64l252 73h78v-624q163 123 301 123q171 0 283 -133.5t112 -346.5q0 -242 -138 -387t-366 -145q-78 0 -192 18v-342l37 -32l129 -11v-73h-480v73l109 11l35 32v1700h-160zM371 119q98 -33 176 -33q152 0 246 113t94 301q0 175 -82 276t-217 101q-96 0 -217 -70 v-688z" />
<glyph unicode="&#xff;" horiz-adv-x="1013" d="M-2 909v76h444v-76l-108 -8l-25 -33l246 -637l256 637l-16 33l-111 8v76h365v-76l-119 -16l-410 -995q-73 -177 -151 -260.5t-176 -83.5q-64 0 -103 31.5t-39 82.5q0 61 53 111l197 -78q93 100 166 307l-344 889zM213 1311q0 44 30.5 74t73.5 30t73 -30t30 -74 q0 -43 -30 -73t-73 -30t-73.5 30t-30.5 73zM594 1311q0 44 30.5 74t73.5 30t73 -30t30 -74q0 -43 -30 -73t-73 -30t-73.5 30t-30.5 73z" />
<glyph unicode="&#x152;" horiz-adv-x="2033" d="M88 688q0 328 197 531q79 83 185.5 127.5t225.5 44.5q160 0 267 -65.5t170 -201.5v250h770v-299h-115l-29 174l-28 31h-426v-518h286l31 29l20 149h97v-451h-97l-20 148l-31 31h-286v-574h499l31 33l33 207h108v-334h-843v252q-72 -132 -183 -200t-254 -68 q-244 0 -413 172q-195 198 -195 532zM301 692q0 -280 114.5 -441t301.5 -161t302.5 160t115.5 436t-115.5 437t-302.5 161t-301.5 -158t-114.5 -434z" />
<glyph unicode="&#x153;" horiz-adv-x="1673" d="M76 494q0 227 129 369.5t327 142.5q119 0 213.5 -51.5t155.5 -149.5q57 96 143.5 148.5t188.5 52.5q168 0 262 -106t94 -300q0 -41 -2 -61h-610v-7q0 -201 90.5 -312t247.5 -111q70 0 133 26t139 82v-113q-171 -124 -336 -124q-226 0 -362 204q-151 -204 -357 -204 q-198 0 -327 143.5t-129 370.5zM268 494q0 -196 74.5 -310t192.5 -114q119 0 192.5 114t73.5 310t-73.5 308.5t-192.5 112.5q-118 0 -192.5 -112t-74.5 -309zM987 625h418v28q0 126 -48.5 193t-137.5 67q-88 0 -151.5 -76t-80.5 -212z" />
<glyph unicode="&#x178;" horiz-adv-x="1200" d="M-27 1292v82h476v-82l-117 -12l-21 -23l314 -563l344 547l-19 29l-125 22v82h418v-82l-125 -26l-426 -682v-461l33 -29l139 -10v-84h-530v84l139 10l33 29v434l-408 715zM305 1714q0 44 31 74.5t74 30.5t72.5 -30.5t29.5 -74.5q0 -43 -29.5 -72.5t-72.5 -29.5t-74 30 t-31 72zM686 1714q0 44 31 74.5t74 30.5t72.5 -30.5t29.5 -74.5q0 -43 -29.5 -72.5t-72.5 -29.5t-74 30t-31 72z" />
<glyph unicode="&#x2c6;" horiz-adv-x="1024" d="M221 1118l225 389h132l225 -389h-111l-180 289l-178 -289h-113z" />
<glyph unicode="&#x2dc;" horiz-adv-x="1024" d="M199 1174v20q0 111 45 168t129 57q48 0 104.5 -26.5t104 -53t73.5 -26.5q44 0 64 30.5t20 96.5v10h84q0 -5 1 -15.5t1 -15.5q0 -98 -49 -157.5t-123 -59.5q-54 0 -114.5 27t-108.5 53.5t-72 26.5q-33 0 -53 -29.5t-20 -81.5q0 -4 1 -12t1 -12h-88z" />
<glyph unicode="&#x2000;" horiz-adv-x="986" />
<glyph unicode="&#x2001;" horiz-adv-x="1972" />
<glyph unicode="&#x2002;" horiz-adv-x="986" />
<glyph unicode="&#x2003;" horiz-adv-x="1972" />
<glyph unicode="&#x2004;" horiz-adv-x="657" />
<glyph unicode="&#x2005;" horiz-adv-x="493" />
<glyph unicode="&#x2006;" horiz-adv-x="328" />
<glyph unicode="&#x2007;" horiz-adv-x="328" />
<glyph unicode="&#x2008;" horiz-adv-x="246" />
<glyph unicode="&#x2009;" horiz-adv-x="394" />
<glyph unicode="&#x200a;" horiz-adv-x="109" />
<glyph unicode="&#x2010;" horiz-adv-x="653" d="M96 424v137h461v-137h-461z" />
<glyph unicode="&#x2011;" horiz-adv-x="653" d="M96 424v137h461v-137h-461z" />
<glyph unicode="&#x2012;" horiz-adv-x="653" d="M96 424v137h461v-137h-461z" />
<glyph unicode="&#x2013;" horiz-adv-x="1024" d="M0 430v125h1024v-125h-1024z" />
<glyph unicode="&#x2014;" horiz-adv-x="2048" d="M0 430v125h2048v-125h-2048z" />
<glyph unicode="&#x2018;" horiz-adv-x="411" d="M72 1094q0 179 196 366h88q-163 -181 -163 -315q0 -31 4 -47h131q26 -39 26 -72q0 -53 -34 -87t-89 -34q-72 0 -115.5 51.5t-43.5 137.5z" />
<glyph unicode="&#x2019;" horiz-adv-x="411" d="M63 905q164 179 164 316q0 31 -4 47h-133q-27 40 -27 75q0 50 34 83.5t89 33.5q73 0 117.5 -51t44.5 -137q0 -180 -196 -367h-89z" />
<glyph unicode="&#x201a;" horiz-adv-x="411" d="M63 -336q164 187 164 313q0 32 -4 48h-131q-26 39 -26 75q0 51 34 85t88 34q72 0 116 -51t44 -137q0 -180 -196 -367h-89z" />
<glyph unicode="&#x201c;" horiz-adv-x="825" d="M72 1094q0 179 196 366h88q-163 -181 -163 -315q0 -31 4 -47h131q26 -39 26 -72q0 -53 -34 -87t-89 -34q-72 0 -115.5 51.5t-43.5 137.5zM483 1094q0 178 197 366h88q-164 -182 -164 -315q0 -31 4 -47h133q27 -40 27 -72q0 -53 -34 -87t-89 -34q-72 0 -117 51.5 t-45 137.5z" />
<glyph unicode="&#x201d;" horiz-adv-x="825" d="M63 905q164 179 164 316q0 31 -4 47h-133q-27 40 -27 75q0 50 34 83.5t89 33.5q73 0 117.5 -51t44.5 -137q0 -180 -196 -367h-89zM475 905q164 179 164 316q0 31 -4 47h-131q-27 40 -27 75q0 51 33.5 84t87.5 33q73 0 117.5 -51t44.5 -137q0 -179 -197 -367h-88z" />
<glyph unicode="&#x201e;" horiz-adv-x="825" d="M63 -336q164 187 164 313q0 32 -4 48h-131q-26 39 -26 75q0 51 34 85t88 34q72 0 116 -51t44 -137q0 -180 -196 -367h-89zM477 100q0 50 34.5 84.5t88.5 34.5q72 0 116 -51t44 -137q0 -181 -195 -367h-88q164 187 164 313q0 32 -4 48h-133q-27 40 -27 75z" />
<glyph unicode="&#x2022;" horiz-adv-x="1208" d="M307 762q0 123 87 209t210 86q122 0 208.5 -86t86.5 -209q0 -122 -87 -209.5t-210 -87.5t-209 87t-86 210z" />
<glyph unicode="&#x2026;" horiz-adv-x="2048" d="M211 111q0 55 38.5 93t92.5 38t91.5 -38t37.5 -93q0 -54 -37.5 -91.5t-91.5 -37.5q-55 0 -93 37t-38 92zM893 111q0 55 38.5 93t92.5 38t91.5 -38t37.5 -93q0 -54 -37.5 -91.5t-91.5 -37.5q-55 0 -93 37t-38 92zM1577 111q0 55 38.5 93t92.5 38t91.5 -38t37.5 -93 q0 -54 -37.5 -91.5t-91.5 -37.5q-55 0 -93 37t-38 92z" />
<glyph unicode="&#x202f;" horiz-adv-x="394" />
<glyph unicode="&#x2039;" horiz-adv-x="501" d="M80 410v163l336 273v-135l-240 -219l240 -222v-133z" />
<glyph unicode="&#x203a;" horiz-adv-x="501" d="M94 137v133l240 222l-240 219v135l334 -273v-163z" />
<glyph unicode="&#x205f;" horiz-adv-x="493" />
<glyph unicode="&#x2122;" horiz-adv-x="1683" d="M242 1214v142h469v-142h-54l-12 82l-14 13h-107v-439l78 -8v-45h-250v43l80 8v441h-106l-17 -13l-12 -82h-55zM772 1309v47h209v-25l139 -368l142 366v27h204v-47l-65 -11v-428l65 -10v-43h-219v43l62 10v435l-189 -488h-45l-180 488v-435l63 -8v-45h-184v45l64 8v428z " />
<glyph unicode="&#x25fc;" horiz-adv-x="983" d="M0 0v983h983v-983h-983z" />
<glyph unicode="&#xfb01;" horiz-adv-x="1175" d="M59 0v74l109 10l37 33v745h-131v64l131 32v33q0 239 115.5 386t283.5 147q62 0 99.5 -30.5t37.5 -78.5q0 -73 -88 -110l-157 114q-119 -67 -119 -311v-150h422l119 56h67v-897l33 -33l96 -10v-74h-446v74l110 10l37 33v745h-440v-745l35 -33l104 -10v-74h-455zM817 1321 q0 44 30.5 74t76.5 30q44 0 75 -30.5t31 -73.5q0 -44 -31 -75.5t-75 -31.5t-75.5 31.5t-31.5 75.5z" />
<glyph unicode="&#xfb02;" horiz-adv-x="1185" d="M59 0v74l109 10l37 33v745h-131v64l131 32v33q0 239 115.5 386t283.5 147q59 0 95 -27t42 -74l209 99h45v-1405l35 -33l117 -10v-74h-465v74l109 10l34 33v1249h-92l-71 -53l-152 114q-133 -62 -133 -319v-150h285v-96h-287v-745l35 -33l104 -10v-74h-455z" />
</font>
</defs>
</svg>
